LisuBosa-Italic.ufo
<glyph name="numbersign" format="2">
  <advance width="482"/>
  <unicode hex="0023"/>
  <outline>
    <contour>
      <point x="300" y="215" type="line"/>
      <point x="187" y="215" type="line"/>
      <point x="214" y="328" type="line"/>
      <point x="327" y="328" type="line"/>
    </contour>
    <contour>
      <point x="438" y="542" type="line"/>
      <point x="378" y="542" type="line"/>
      <point x="341" y="387" type="line"/>
      <point x="227" y="387" type="line"/>
      <point x="264" y="542" type="line"/>
      <point x="204" y="542" type="line"/>
      <point x="167" y="387" type="line"/>
      <point x="78" y="387" type="line"/>
      <point x="71" y="328" type="line"/>
      <point x="154" y="328" type="line"/>
      <point x="127" y="215" type="line"/>
      <point x="49" y="215" type="line"/>
      <point x="42" y="155" type="line"/>
      <point x="113" y="155" type="line"/>
      <point x="74" y="-4" type="line"/>
      <point x="135" y="-4" type="line"/>
      <point x="172" y="155" type="line"/>
      <point x="286" y="155" type="line"/>
      <point x="248" y="-4" type="line"/>
      <point x="308" y="-4" type="line"/>
      <point x="346" y="155" type="line"/>
      <point x="432" y="155" type="line"/>
      <point x="439" y="215" type="line"/>
      <point x="361" y="215" type="line"/>
      <point x="387" y="328" type="line"/>
      <point x="461" y="328" type="line"/>
      <point x="468" y="387" type="line"/>
      <point x="401" y="387" type="line"/>
    </contour>
  </outline>
</glyph>
<glyph name="ampersand" format="2">
  <advance width="478"/>
  <unicode hex="0026"/>
  <outline>
    <contour>
      <point x="17" y="141" type="curve" smooth="yes"/>
      <point x="17" y="65"/>
      <point x="80" y="-10"/>
      <point x="177" y="-10" type="curve" smooth="yes"/>
      <point x="270" y="-10"/>
      <point x="342" y="53"/>
      <point x="367" y="122" type="curve" smooth="yes"/>
      <point x="371" y="133"/>
      <point x="375" y="146"/>
      <point x="375" y="152" type="curve" smooth="yes"/>
      <point x="375" y="175"/>
      <point x="349" y="176"/>
      <point x="326" y="176" type="curve" smooth="yes"/>
      <point x="314" y="176"/>
      <point x="308" y="172"/>
      <point x="303" y="161" type="curve" smooth="yes"/>
      <point x="300" y="154"/>
      <point x="299" y="140"/>
      <point x="289" y="125" type="curve" smooth="yes"/>
      <point x="264" y="88"/>
      <point x="224" y="63"/>
      <point x="185" y="63" type="curve" smooth="yes"/>
      <point x="118" y="63"/>
      <point x="92" y="106"/>
      <point x="92" y="152" type="curve" smooth="yes"/>
      <point x="92" y="205"/>
      <point x="126" y="249"/>
      <point x="199" y="249" type="curve" smooth="yes"/>
      <point x="217" y="249"/>
      <point x="228" y="253"/>
      <point x="237" y="274" type="curve" smooth="yes"/>
      <point x="241" y="283"/>
      <point x="242" y="294"/>
      <point x="242" y="300" type="curve" smooth="yes"/>
      <point x="242" y="309"/>
      <point x="239" y="314"/>
      <point x="232" y="319" type="curve" smooth="yes"/>
      <point x="199" y="340"/>
      <point x="186" y="368"/>
      <point x="186" y="394" type="curve" smooth="yes"/>
      <point x="186" y="438"/>
      <point x="217" y="465"/>
      <point x="267" y="465" type="curve" smooth="yes"/>
      <point x="307" y="465"/>
      <point x="335" y="443"/>
      <point x="347" y="420" type="curve" smooth="yes"/>
      <point x="351" y="412"/>
      <point x="358" y="408"/>
      <point x="366" y="408" type="curve" smooth="yes"/>
      <point x="388" y="408"/>
      <point x="420" y="421"/>
      <point x="420" y="437" type="curve" smooth="yes"/>
      <point x="420" y="453"/>
      <point x="401" y="484"/>
      <point x="375" y="505" type="curve" smooth="yes"/>
      <point x="354" y="522"/>
      <point x="318" y="538"/>
      <point x="274" y="538" type="curve" smooth="yes"/>
      <point x="167" y="538"/>
      <point x="111" y="471"/>
      <point x="111" y="399" type="curve" smooth="yes"/>
      <point x="111" y="372"/>
      <point x="127" y="334"/>
      <point x="158" y="304" type="curve"/>
      <point x="76" y="281"/>
      <point x="17" y="221"/>
    </contour>
    <contour>
      <point x="443" y="165" type="curve" smooth="yes"/>
      <point x="446" y="174"/>
      <point x="447" y="184"/>
      <point x="447" y="190" type="curve" smooth="yes"/>
      <point x="447" y="204"/>
      <point x="438" y="211"/>
      <point x="417" y="211" type="curve" smooth="yes"/>
      <point x="391" y="211"/>
      <point x="377" y="210"/>
      <point x="344" y="210" type="curve" smooth="yes"/>
      <point x="319" y="210"/>
      <point x="310" y="211"/>
      <point x="293" y="211" type="curve" smooth="yes"/>
      <point x="279" y="211"/>
      <point x="271" y="210"/>
      <point x="264" y="207" type="curve" smooth="yes"/>
      <point x="257" y="204"/>
      <point x="252" y="198"/>
      <point x="247" y="187" type="curve" smooth="yes"/>
      <point x="242" y="176"/>
      <point x="240" y="165"/>
      <point x="240" y="159" type="curve" smooth="yes"/>
      <point x="240" y="145"/>
      <point x="252" y="140"/>
      <point x="272" y="140" type="curve" smooth="yes"/>
      <point x="289" y="140"/>
      <point x="318" y="142"/>
      <point x="350" y="142" type="curve" smooth="yes"/>
      <point x="367" y="142"/>
      <point x="374" y="140"/>
      <point x="404" y="140" type="curve" smooth="yes"/>
      <point x="422" y="140"/>
      <point x="435" y="142"/>
    </contour>
  </outline>
</glyph>
<glyph name="plus" format="2">
  <advance width="462"/>
  <unicode hex="002B"/>
  <outline>
    <contour>
      <point x="427" y="308" type="line"/>
      <point x="427" y="237" type="line"/>
      <point x="267" y="237" type="line"/>
      <point x="267" y="76" type="line"/>
      <point x="196" y="76" type="line"/>
      <point x="196" y="237" type="line"/>
      <point x="36" y="237" type="line"/>
      <point x="36" y="308" type="line"/>
      <point x="196" y="308" type="line"/>
      <point x="196" y="468" type="line"/>
      <point x="267" y="468" type="line"/>
      <point x="267" y="308" type="line"/>
    </contour>
  </outline>
</glyph>
<glyph name="comma" format="2">
  <advance width="279"/>
  <unicode hex="002C"/>
  <outline>
    <contour>
      <point x="16" y="-147" type="line"/>
      <point x="109" y="-112"/>
      <point x="182" y="-28"/>
      <point x="182" y="61" type="curve" smooth="yes"/>
      <point x="182" y="77"/>
      <point x="179" y="89"/>
      <point x="172" y="99" type="curve"/>
      <point x="158" y="106"/>
      <point x="141" y="112"/>
      <point x="126" y="112" type="curve" smooth="yes"/>
      <point x="85" y="112"/>
      <point x="67" y="84"/>
      <point x="67" y="56" type="curve" smooth="yes"/>
      <point x="67" y="36"/>
      <point x="74" y="17"/>
      <point x="86" y="5" type="curve" smooth="yes"/>
      <point x="124" y="-35" type="line"/>
      <point x="121" y="-7" type="line"/>
      <point x="91" y="-61"/>
      <point x="52" y="-96"/>
      <point x="2" y="-119" type="curve"/>
    </contour>
  </outline>
</glyph>
<glyph name="hyphen" format="2">
  <advance width="375"/>
  <unicode hex="002D"/>
  <outline>
    <contour>
      <point x="44" y="269" type="curve" smooth="yes"/>
      <point x="41" y="260"/>
      <point x="40" y="251"/>
      <point x="40" y="246" type="curve" smooth="yes"/>
      <point x="40" y="229"/>
      <point x="53" y="225"/>
      <point x="70" y="225" type="curve" smooth="yes"/>
      <point x="110" y="225"/>
      <point x="135" y="226"/>
      <point x="217" y="226" type="curve" smooth="yes"/>
      <point x="251" y="226"/>
      <point x="281" y="225"/>
      <point x="318" y="225" type="curve" smooth="yes"/>
      <point x="326" y="225"/>
      <point x="340" y="226"/>
      <point x="346" y="229" type="curve" smooth="yes"/>
      <point x="352" y="232"/>
      <point x="359" y="237"/>
      <point x="365" y="255" type="curve" smooth="yes"/>
      <point x="367" y="262"/>
      <point x="369" y="271"/>
      <point x="369" y="277" type="curve" smooth="yes"/>
      <point x="369" y="292"/>
      <point x="362" y="299"/>
      <point x="340" y="299" type="curve" smooth="yes"/>
      <point x="309" y="299"/>
      <point x="263" y="297"/>
      <point x="202" y="297" type="curve" smooth="yes"/>
      <point x="143" y="297"/>
      <point x="108" y="298"/>
      <point x="82" y="298" type="curve" smooth="yes"/>
      <point x="64" y="298"/>
      <point x="53" y="294"/>
    </contour>
  </outline>
</glyph>
<glyph name="period" format="2">
  <advance width="299"/>
  <unicode hex="002E"/>
  <outline>
    <contour>
      <point x="111" y="-11" type="curve" smooth="yes"/>
      <point x="148" y="-11"/>
      <point x="178" y="17"/>
      <point x="178" y="55" type="curve" smooth="yes"/>
      <point x="178" y="85"/>
      <point x="156" y="110"/>
      <point x="123" y="110" type="curve" smooth="yes"/>
      <point x="86" y="110"/>
      <point x="54" y="81"/>
      <point x="54" y="44" type="curve" smooth="yes"/>
      <point x="54" y="12"/>
      <point x="78" y="-11"/>
    </contour>
  </outline>
</glyph>
<glyph name="one" format="2">
  <advance width="474"/>
  <unicode hex="0031"/>
  <outline>
    <contour>
      <point x="261" y="17" type="curve" smooth="yes"/>
      <point x="257" y="0"/>
      <point x="241" y="-9"/>
      <point x="218" y="-9" type="curve" smooth="yes"/>
      <point x="186" y="-9"/>
      <point x="178" y="6"/>
      <point x="178" y="14" type="curve" smooth="yes"/>
      <point x="178" y="24"/>
      <point x="203" y="97"/>
      <point x="213" y="131" type="curve" smooth="yes"/>
      <point x="239" y="218"/>
      <point x="264" y="306"/>
      <point x="285" y="393" type="curve"/>
      <point x="252" y="371"/>
      <point x="228" y="358"/>
      <point x="202" y="344" type="curve" smooth="yes"/>
      <point x="191" y="338"/>
      <point x="182" y="334"/>
      <point x="177" y="334" type="curve" smooth="yes"/>
      <point x="165" y="334"/>
      <point x="153" y="346"/>
      <point x="148" y="352" type="curve" smooth="yes"/>
      <point x="143" y="359"/>
      <point x="138" y="367"/>
      <point x="138" y="374" type="curve" smooth="yes"/>
      <point x="138" y="380"/>
      <point x="147" y="388"/>
      <point x="166" y="399" type="curve" smooth="yes"/>
      <point x="222" y="432"/>
      <point x="276" y="472"/>
      <point x="310" y="506" type="curve" smooth="yes"/>
      <point x="319" y="515"/>
      <point x="327" y="523"/>
      <point x="330" y="525" type="curve" smooth="yes"/>
      <point x="334" y="528"/>
      <point x="345" y="532"/>
      <point x="364" y="532" type="curve" smooth="yes"/>
      <point x="384" y="532"/>
      <point x="396" y="524"/>
      <point x="396" y="516" type="curve" smooth="yes"/>
      <point x="396" y="506"/>
      <point x="392" y="490"/>
      <point x="388" y="475" type="curve" smooth="yes"/>
      <point x="354" y="352"/>
      <point x="318" y="230"/>
      <point x="286" y="113" type="curve" smooth="yes"/>
      <point x="277" y="80"/>
      <point x="269" y="49"/>
    </contour>
  </outline>
</glyph>
<glyph name="four" format="2">
  <advance width="474"/>
  <unicode hex="0034"/>
  <outline>
    <contour>
      <point x="401" y="532" type="curve" smooth="yes"/>
      <point x="372" y="532"/>
      <point x="369" y="529"/>
      <point x="349" y="508" type="curve" smooth="yes"/>
      <point x="286" y="441"/>
      <point x="105" y="252"/>
      <point x="23" y="190" type="curve" smooth="yes"/>
      <point x="17" y="185"/>
      <point x="15" y="179"/>
      <point x="15" y="174" type="curve" smooth="yes"/>
      <point x="15" y="169"/>
      <point x="16" y="160"/>
      <point x="19" y="151" type="curve" smooth="yes"/>
      <point x="27" y="127"/>
      <point x="43" y="123"/>
      <point x="61" y="123" type="curve" smooth="yes"/>
      <point x="79" y="123"/>
      <point x="112" y="124"/>
      <point x="152" y="124" type="curve" smooth="yes"/>
      <point x="187" y="124"/>
      <point x="222" y="125"/>
      <point x="257" y="125" type="curve"/>
      <point x="245" y="89"/>
      <point x="224" y="24"/>
      <point x="224" y="14" type="curve" smooth="yes"/>
      <point x="224" y="2"/>
      <point x="233" y="-9"/>
      <point x="265" y="-9" type="curve" smooth="yes"/>
      <point x="288" y="-9"/>
      <point x="305" y="0"/>
      <point x="309" y="17" type="curve" smooth="yes"/>
      <point x="317" y="49"/>
      <point x="325" y="80"/>
      <point x="334" y="113" type="curve" smooth="yes"/>
      <point x="335" y="117"/>
      <point x="336" y="120"/>
      <point x="337" y="124" type="curve"/>
      <point x="363" y="123"/>
      <point x="388" y="123"/>
      <point x="411" y="123" type="curve" smooth="yes"/>
      <point x="427" y="123"/>
      <point x="434" y="126"/>
      <point x="437" y="128" type="curve" smooth="yes"/>
      <point x="441" y="130"/>
      <point x="444" y="137"/>
      <point x="444" y="144" type="curve" smooth="yes"/>
      <point x="444" y="152"/>
      <point x="439" y="169"/>
      <point x="431" y="177" type="curve" smooth="yes"/>
      <point x="417" y="191"/>
      <point x="397" y="192"/>
      <point x="379" y="192" type="curve" smooth="yes"/>
      <point x="355" y="192" type="line"/>
      <point x="380" y="282"/>
      <point x="408" y="381"/>
      <point x="435" y="475" type="curve" smooth="yes"/>
      <point x="439" y="490"/>
      <point x="443" y="506"/>
      <point x="443" y="516" type="curve" smooth="yes"/>
      <point x="443" y="524"/>
      <point x="431" y="532"/>
    </contour>
    <contour>
      <point x="102" y="169" type="line"/>
      <point x="192" y="246"/>
      <point x="327" y="394"/>
      <point x="343" y="405" type="curve"/>
      <point x="343" y="428" type="line"/>
      <point x="324" y="349"/>
      <point x="301" y="271"/>
      <point x="277" y="192" type="curve"/>
      <point x="232" y="192"/>
      <point x="201" y="191"/>
      <point x="165" y="191" type="curve" smooth="yes"/>
      <point x="82" y="191" type="line"/>
    </contour>
  </outline>
</glyph>
<glyph name="six" format="2">
  <advance width="474"/>
  <unicode hex="0036"/>
  <guideline x="416" y="233" angle="71"/>
  <outline>
    <contour>
      <point x="392" y="198" type="curve" smooth="yes"/>
      <point x="392" y="92"/>
      <point x="310" y="-8"/>
      <point x="184" y="-8" type="curve" smooth="yes"/>
      <point x="98" y="-8"/>
      <point x="41" y="63"/>
      <point x="41" y="151" type="curve" smooth="yes"/>
      <point x="41" y="229"/>
      <point x="85" y="371"/>
      <point x="141" y="445" type="curve" smooth="yes"/>
      <point x="187" y="506"/>
      <point x="236" y="538"/>
      <point x="314" y="538" type="curve" smooth="yes"/>
      <point x="348" y="538"/>
      <point x="384" y="523"/>
      <point x="405" y="505" type="curve" smooth="yes"/>
      <point x="432" y="482"/>
      <point x="447" y="450"/>
      <point x="447" y="431" type="curve" smooth="yes"/>
      <point x="447" y="413"/>
      <point x="410" y="405"/>
      <point x="393" y="405" type="curve" smooth="yes"/>
      <point x="385" y="405"/>
      <point x="379" y="409"/>
      <point x="376" y="416" type="curve" smooth="yes"/>
      <point x="366" y="439"/>
      <point x="346" y="465"/>
      <point x="301" y="465" type="curve" smooth="yes"/>
      <point x="233" y="465"/>
      <point x="179" y="403"/>
      <point x="145" y="295" type="curve"/>
      <point x="175" y="319"/>
      <point x="221" y="332"/>
      <point x="258" y="332" type="curve" smooth="yes"/>
      <point x="328" y="332"/>
      <point x="392" y="268"/>
    </contour>
    <contour>
      <point x="198" y="64" type="curve" smooth="yes"/>
      <point x="266" y="64"/>
      <point x="317" y="132"/>
      <point x="317" y="185" type="curve" smooth="yes"/>
      <point x="317" y="229"/>
      <point x="285" y="265"/>
      <point x="237" y="265" type="curve" smooth="yes"/>
      <point x="163" y="265"/>
      <point x="116" y="207"/>
      <point x="116" y="151" type="curve" smooth="yes"/>
      <point x="116" y="96"/>
      <point x="149" y="64"/>
    </contour>
  </outline>
</glyph>
<glyph name="seven" format="2">
  <advance width="474"/>
  <unicode hex="0037"/>
  <guideline x="16" y="233" angle="71"/>
  <outline>
    <contour>
      <point x="118" y="492" type="curve" smooth="yes"/>
      <point x="125" y="473"/>
      <point x="139" y="461"/>
      <point x="157" y="461" type="curve" smooth="yes"/>
      <point x="207" y="461"/>
      <point x="288" y="462"/>
      <point x="338" y="462" type="curve" smooth="yes"/>
      <point x="383" y="462"/>
      <point x="391" y="459"/>
      <point x="436" y="459" type="curve" smooth="yes"/>
      <point x="442" y="459"/>
      <point x="459" y="460"/>
      <point x="464" y="463" type="curve" smooth="yes"/>
      <point x="467" y="465"/>
      <point x="474" y="471"/>
      <point x="474" y="480" type="curve" smooth="yes"/>
      <point x="474" y="485"/>
      <point x="473" y="494"/>
      <point x="470" y="501" type="curve" smooth="yes"/>
      <point x="464" y="516"/>
      <point x="456" y="524"/>
      <point x="448" y="527" type="curve" smooth="yes"/>
      <point x="441" y="530"/>
      <point x="422" y="532"/>
      <point x="407" y="532" type="curve" smooth="yes"/>
      <point x="398" y="532"/>
      <point x="350" y="532"/>
      <point x="302" y="532" type="curve" smooth="yes"/>
      <point x="244" y="532"/>
      <point x="184" y="533"/>
      <point x="144" y="533" type="curve" smooth="yes"/>
      <point x="122" y="533"/>
      <point x="114" y="525"/>
      <point x="114" y="511" type="curve" smooth="yes"/>
      <point x="114" y="506"/>
      <point x="115" y="501"/>
    </contour>
    <contour>
      <point x="117" y="-8" type="curve" smooth="yes"/>
      <point x="141" y="-8"/>
      <point x="154" y="0"/>
      <point x="157" y="6" type="curve" smooth="yes"/>
      <point x="161" y="14"/>
      <point x="170" y="43"/>
      <point x="179" y="63" type="curve" smooth="yes"/>
      <point x="226" y="167"/>
      <point x="303" y="312"/>
      <point x="444" y="443" type="curve" smooth="yes"/>
      <point x="457" y="455"/>
      <point x="464" y="462"/>
      <point x="468" y="467" type="curve" smooth="yes"/>
      <point x="471" y="471"/>
      <point x="472" y="474"/>
      <point x="472" y="478" type="curve" smooth="yes"/>
      <point x="472" y="488"/>
      <point x="453" y="514"/>
      <point x="431" y="514" type="curve" smooth="yes"/>
      <point x="418" y="514"/>
      <point x="406" y="506"/>
      <point x="398" y="498" type="curve" smooth="yes"/>
      <point x="271" y="373"/>
      <point x="159" y="219"/>
      <point x="90" y="47" type="curve" smooth="yes"/>
      <point x="81" y="25"/>
      <point x="78" y="17"/>
      <point x="78" y="9" type="curve" smooth="yes"/>
      <point x="78" y="1"/>
      <point x="86" y="-8"/>
    </contour>
  </outline>
</glyph>
<glyph name="question" format="2">
  <advance width="423"/>
  <unicode hex="003F"/>
  <outline>
    <contour>
      <point x="108" y="-11" type="curve" smooth="yes"/>
      <point x="145" y="-11"/>
      <point x="175" y="17"/>
      <point x="175" y="55" type="curve" smooth="yes"/>
      <point x="175" y="85"/>
      <point x="153" y="110"/>
      <point x="120" y="110" type="curve" smooth="yes"/>
      <point x="83" y="110"/>
      <point x="51" y="81"/>
      <point x="51" y="44" type="curve" smooth="yes"/>
      <point x="51" y="12"/>
      <point x="75" y="-11"/>
    </contour>
    <contour>
      <point x="388" y="452" type="curve" smooth="yes"/>
      <point x="388" y="522"/>
      <point x="328" y="570"/>
      <point x="261" y="570" type="curve" smooth="yes"/>
      <point x="226" y="570"/>
      <point x="191" y="558"/>
      <point x="165" y="539" type="curve" smooth="yes"/>
      <point x="136" y="518"/>
      <point x="123" y="498"/>
      <point x="123" y="487" type="curve" smooth="yes"/>
      <point x="123" y="467"/>
      <point x="149" y="449"/>
      <point x="158" y="449" type="curve" smooth="yes"/>
      <point x="166" y="449"/>
      <point x="172" y="454"/>
      <point x="177" y="459" type="curve" smooth="yes"/>
      <point x="184" y="466"/>
      <point x="191" y="472"/>
      <point x="196" y="476" type="curve" smooth="yes"/>
      <point x="212" y="489"/>
      <point x="231" y="498"/>
      <point x="253" y="498" type="curve" smooth="yes"/>
      <point x="281" y="498"/>
      <point x="313" y="485"/>
      <point x="313" y="448" type="curve" smooth="yes"/>
      <point x="313" y="407"/>
      <point x="284" y="379"/>
      <point x="242" y="352" type="curve" smooth="yes"/>
      <point x="199" y="324"/>
      <point x="169" y="303"/>
      <point x="149" y="278" type="curve" smooth="yes"/>
      <point x="133" y="258"/>
      <point x="125" y="241"/>
      <point x="125" y="223" type="curve" smooth="yes"/>
      <point x="125" y="204"/>
      <point x="153" y="194"/>
      <point x="173" y="194" type="curve" smooth="yes"/>
      <point x="184" y="194"/>
      <point x="194" y="201"/>
      <point x="198" y="212" type="curve" smooth="yes"/>
      <point x="202" y="223"/>
      <point x="210" y="239"/>
      <point x="221" y="249" type="curve" smooth="yes"/>
      <point x="234" y="261"/>
      <point x="249" y="274"/>
      <point x="298" y="306" type="curve" smooth="yes"/>
      <point x="349" y="340"/>
      <point x="388" y="380"/>
    </contour>
  </outline>
</glyph>
<glyph name="B" format="2">
  <advance width="575"/>
  <unicode hex="0042"/>
  <anchor x="342" y="634" name="aboveUC"/>
  <anchor x="263" y="-20" name="belowLC"/>
  <outline>
    <contour>
      <point x="12" y="0" type="line"/>
      <point x="131" y="0" type="line"/>
      <point x="141" y="52" type="line"/>
      <point x="134" y="52" type="line"/>
      <point x="20" y="38" type="line"/>
    </contour>
    <contour>
      <point x="90" y="0" type="line"/>
      <point x="178" y="0" type="line"/>
      <point x="194" y="94"/>
      <point x="210" y="190"/>
      <point x="228" y="285" type="curve" smooth="yes"/>
      <point x="289" y="614" type="line"/>
      <point x="200" y="614" type="line"/>
      <point x="185" y="519"/>
      <point x="169" y="424"/>
      <point x="151" y="329" type="curve" smooth="yes"/>
    </contour>
    <contour>
      <point x="110" y="575" type="line"/>
      <point x="223" y="562" type="line"/>
      <point x="235" y="562" type="line"/>
      <point x="245" y="614" type="line"/>
      <point x="118" y="614" type="line"/>
    </contour>
    <contour>
      <point x="131" y="0" type="line"/>
      <point x="271" y="0" type="line" smooth="yes"/>
      <point x="426" y="0"/>
      <point x="528" y="68"/>
      <point x="528" y="171" type="curve" smooth="yes"/>
      <point x="528" y="256"/>
      <point x="457" y="329"/>
      <point x="326" y="330" type="curve"/>
      <point x="309" y="313" type="line"/>
      <point x="436" y="314"/>
      <point x="536" y="382"/>
      <point x="536" y="480" type="curve" smooth="yes"/>
      <point x="536" y="554"/>
      <point x="481" y="614"/>
      <point x="355" y="614" type="curve" smooth="yes"/>
      <point x="245" y="614" type="line"/>
      <point x="238" y="571" type="line"/>
      <point x="341" y="571" type="line" smooth="yes"/>
      <point x="414" y="571"/>
      <point x="449" y="528"/>
      <point x="449" y="468" type="curve" smooth="yes"/>
      <point x="449" y="396"/>
      <point x="400" y="343"/>
      <point x="287" y="343" type="curve" smooth="yes"/>
      <point x="195" y="343" type="line"/>
      <point x="186" y="299" type="line"/>
      <point x="296" y="299" type="line" smooth="yes"/>
      <point x="378" y="299"/>
      <point x="436" y="258"/>
      <point x="436" y="183" type="curve" smooth="yes"/>
      <point x="436" y="104"/>
      <point x="387" y="43"/>
      <point x="261" y="43" type="curve" smooth="yes"/>
      <point x="140" y="43" type="line"/>
    </contour>
  </outline>
</glyph>
<glyph name="E" format="2">
  <advance width="540"/>
  <unicode hex="0045"/>
  <anchor x="364" y="634" name="aboveUC"/>
  <anchor x="280" y="-20" name="belowLC"/>
  <anchor x="391" y="0" name="ogonek"/>
  <outline>
    <contour>
      <point x="12" y="0" type="line"/>
      <point x="131" y="0" type="line"/>
      <point x="140" y="52" type="line"/>
      <point x="134" y="52" type="line"/>
      <point x="20" y="38" type="line"/>
    </contour>
    <contour>
      <point x="90" y="0" type="line"/>
      <point x="178" y="0" type="line"/>
      <point x="194" y="94"/>
      <point x="210" y="190"/>
      <point x="228" y="285" type="curve" smooth="yes"/>
      <point x="289" y="614" type="line"/>
      <point x="200" y="614" type="line"/>
      <point x="185" y="519"/>
      <point x="169" y="424"/>
      <point x="151" y="329" type="curve" smooth="yes"/>
    </contour>
    <contour>
      <point x="110" y="575" type="line"/>
      <point x="223" y="562" type="line"/>
      <point x="235" y="562" type="line"/>
      <point x="245" y="614" type="line"/>
      <point x="118" y="614" type="line"/>
    </contour>
    <contour>
      <point x="131" y="0" type="line"/>
      <point x="473" y="0" type="line"/>
      <point x="510" y="162" type="line"/>
      <point x="460" y="162" type="line"/>
      <point x="402" y="0" type="line"/>
      <point x="456" y="46" type="line"/>
      <point x="140" y="46" type="line"/>
    </contour>
    <contour>
      <point x="188" y="292" type="line"/>
      <point x="393" y="292" type="line"/>
      <point x="402" y="335" type="line"/>
      <point x="196" y="335" type="line"/>
    </contour>
    <contour>
      <point x="236" y="567" type="line"/>
      <point x="507" y="567" type="line"/>
      <point x="474" y="614" type="line"/>
      <point x="474" y="451" type="line"/>
      <point x="524" y="451" type="line"/>
      <point x="546" y="614" type="line"/>
      <point x="245" y="614" type="line"/>
    </contour>
    <contour>
      <point x="365" y="207" type="line"/>
      <point x="404" y="207" type="line"/>
      <point x="446" y="422" type="line"/>
      <point x="405" y="422" type="line"/>
      <point x="371" y="326" type="line"/>
      <point x="368" y="308" type="line"/>
    </contour>
  </outline>
</glyph>
<glyph name="P" format="2">
  <advance width="520"/>
  <unicode hex="0050"/>
  <anchor x="341" y="634" name="aboveUC"/>
  <anchor x="138" y="-20" name="belowLC"/>
  <outline>
    <contour>
      <point x="12" y="0" type="line"/>
      <point x="266" y="0" type="line"/>
      <point x="274" y="38" type="line"/>
      <point x="158" y="52" type="line"/>
      <point x="138" y="52" type="line"/>
      <point x="20" y="38" type="line"/>
    </contour>
    <contour>
      <point x="90" y="0" type="line"/>
      <point x="178" y="0" type="line"/>
      <point x="194" y="94"/>
      <point x="210" y="190"/>
      <point x="228" y="285" type="curve" smooth="yes"/>
      <point x="289" y="614" type="line"/>
      <point x="200" y="614" type="line"/>
      <point x="185" y="519"/>
      <point x="169" y="424"/>
      <point x="151" y="329" type="curve" smooth="yes"/>
    </contour>
    <contour>
      <point x="110" y="575" type="line"/>
      <point x="223" y="562" type="line"/>
      <point x="237" y="562" type="line"/>
      <point x="248" y="614" type="line"/>
      <point x="118" y="614" type="line"/>
    </contour>
    <contour>
      <point x="173" y="238" type="line"/>
      <point x="279" y="238" type="line" smooth="yes"/>
      <point x="448" y="238"/>
      <point x="541" y="330"/>
      <point x="541" y="452" type="curve" smooth="yes"/>
      <point x="541" y="548"/>
      <point x="472" y="614"/>
      <point x="331" y="614" type="curve" smooth="yes"/>
      <point x="248" y="614" type="line"/>
      <point x="239" y="571" type="line"/>
      <point x="318" y="571" type="line" smooth="yes"/>
      <point x="403" y="571"/>
      <point x="450" y="527"/>
      <point x="450" y="444" type="curve" smooth="yes"/>
      <point x="450" y="347"/>
      <point x="392" y="281"/>
      <point x="278" y="281" type="curve" smooth="yes"/>
      <point x="182" y="281" type="line"/>
    </contour>
  </outline>
</glyph>
<glyph name="Q" format="2">
  <advance width="608"/>
  <unicode hex="0051"/>
  <anchor x="379" y="634" name="aboveUC"/>
  <anchor x="279" y="-19" name="belowLC"/>
  <anchor x="523" y="621" name="hornLC"/>
  <anchor x="362" y="0" name="ogonek"/>
  <outline>
    <contour>
      <point x="451" y="-227" type="curve" smooth="yes"/>
      <point x="514" y="-227"/>
      <point x="561" y="-203"/>
      <point x="599" y="-170" type="curve"/>
      <point x="586" y="-141" type="line"/>
      <point x="550" y="-160"/>
      <point x="519" y="-167"/>
      <point x="471" y="-167" type="curve" smooth="yes"/>
      <point x="370" y="-167"/>
      <point x="316" y="-97"/>
      <point x="317" y="19" type="curve"/>
      <point x="234" y="19" type="line"/>
      <point x="234" y="-125"/>
      <point x="314" y="-227"/>
    </contour>
    <contour>
      <point x="279" y="-13" type="curve" smooth="yes"/>
      <point x="475" y="-13"/>
      <point x="603" y="164"/>
      <point x="603" y="375" type="curve" smooth="yes"/>
      <point x="603" y="529"/>
      <point x="517" y="628"/>
      <point x="379" y="628" type="curve" smooth="yes"/>
      <point x="188" y="628"/>
      <point x="58" y="449"/>
      <point x="58" y="238" type="curve" smooth="yes"/>
      <point x="58" y="80"/>
      <point x="147" y="-13"/>
    </contour>
    <contour>
      <point x="292" y="33" type="curve" smooth="yes"/>
      <point x="192" y="33"/>
      <point x="147" y="113"/>
      <point x="147" y="233" type="curve" smooth="yes"/>
      <point x="147" y="430"/>
      <point x="238" y="581"/>
      <point x="369" y="581" type="curve" smooth="yes"/>
      <point x="471" y="581"/>
      <point x="515" y="504"/>
      <point x="515" y="379" type="curve" smooth="yes"/>
      <point x="515" y="184"/>
      <point x="424" y="33"/>
    </contour>
  </outline>
</glyph>
<glyph name="R" format="2">
  <advance width="596"/>
  <unicode hex="0052"/>
  <anchor x="347" y="634" name="aboveUC"/>
  <anchor x="336" y="-20" name="belowLC"/>
  <outline>
    <contour>
      <point x="12" y="0" type="line"/>
      <point x="264" y="0" type="line"/>
      <point x="272" y="38" type="line"/>
      <point x="157" y="52" type="line"/>
      <point x="138" y="52" type="line"/>
      <point x="20" y="38" type="line"/>
    </contour>
    <contour>
      <point x="90" y="0" type="line"/>
      <point x="178" y="0" type="line"/>
      <point x="194" y="94"/>
      <point x="210" y="190"/>
      <point x="228" y="285" type="curve" smooth="yes"/>
      <point x="289" y="614" type="line"/>
      <point x="200" y="614" type="line"/>
      <point x="185" y="519"/>
      <point x="169" y="424"/>
      <point x="151" y="329" type="curve" smooth="yes"/>
    </contour>
    <contour>
      <point x="110" y="575" type="line"/>
      <point x="223" y="562" type="line"/>
      <point x="236" y="562" type="line"/>
      <point x="246" y="614" type="line"/>
      <point x="118" y="614" type="line"/>
    </contour>
    <contour>
      <point x="502" y="-9" type="curve" smooth="yes"/>
      <point x="538" y="-9"/>
      <point x="557" y="-5"/>
      <point x="580" y="0" type="curve"/>
      <point x="587" y="38" type="line"/>
      <point x="428" y="57" type="line"/>
      <point x="500" y="28" type="line"/>
      <point x="448" y="178" type="line" smooth="yes"/>
      <point x="420" y="264"/>
      <point x="395" y="293"/>
      <point x="321" y="305" type="curve"/>
      <point x="328" y="287" type="line"/>
      <point x="483" y="298"/>
      <point x="554" y="373"/>
      <point x="554" y="469" type="curve" smooth="yes"/>
      <point x="554" y="563"/>
      <point x="481" y="614"/>
      <point x="367" y="614" type="curve" smooth="yes"/>
      <point x="247" y="614" type="line"/>
      <point x="239" y="571" type="line"/>
      <point x="355" y="571" type="line" smooth="yes"/>
      <point x="425" y="571"/>
      <point x="464" y="535"/>
      <point x="464" y="471" type="curve" smooth="yes"/>
      <point x="464" y="388"/>
      <point x="417" y="327"/>
      <point x="298" y="327" type="curve" smooth="yes"/>
      <point x="194" y="326" type="line"/>
      <point x="185" y="284" type="line"/>
      <point x="264" y="284" type="line" smooth="yes"/>
      <point x="315" y="284"/>
      <point x="333" y="268"/>
      <point x="356" y="196" type="curve" smooth="yes"/>
      <point x="401" y="57" type="line" smooth="yes"/>
      <point x="415" y="8"/>
      <point x="446" y="-9"/>
    </contour>
  </outline>
</glyph>
<glyph name="Y" format="2">
  <advance width="511"/>
  <unicode hex="0059"/>
  <anchor x="359" y="634" name="aboveUC"/>
  <anchor x="230" y="-20" name="belowLC"/>
  <outline>
    <contour>
      <point x="57" y="575" type="line"/>
      <point x="171" y="562" type="line"/>
      <point x="191" y="562" type="line"/>
      <point x="305" y="575" type="line"/>
      <point x="312" y="614" type="line"/>
      <point x="64" y="614" type="line"/>
    </contour>
    <contour>
      <point x="101" y="0" type="line"/>
      <point x="368" y="0" type="line"/>
      <point x="375" y="38" type="line"/>
      <point x="255" y="52" type="line"/>
      <point x="235" y="52" type="line"/>
      <point x="108" y="38" type="line"/>
    </contour>
    <contour>
      <point x="246" y="226" type="line"/>
      <point x="300" y="226" type="line"/>
      <point x="556" y="614" type="line"/>
      <point x="508" y="614" type="line"/>
      <point x="299" y="288" type="line"/>
      <point x="312" y="287" type="line"/>
      <point x="210" y="614" type="line"/>
      <point x="111" y="614" type="line"/>
    </contour>
    <contour>
      <point x="187" y="0" type="line"/>
      <point x="276" y="0" type="line"/>
      <point x="291" y="94"/>
      <point x="308" y="190"/>
      <point x="325" y="285" type="curve"/>
      <point x="241" y="285" type="line"/>
    </contour>
    <contour>
      <point x="400" y="575" type="line"/>
      <point x="492" y="562" type="line"/>
      <point x="510" y="562" type="line"/>
      <point x="604" y="575" type="line"/>
      <point x="611" y="614" type="line"/>
      <point x="408" y="614" type="line"/>
    </contour>
  </outline>
</glyph>
<glyph name="f" format="2">
  <advance width="276"/>
  <unicode hex="0066"/>
  <anchor x="341" y="689" name="aboveLC"/>
  <anchor x="-34" y="-230" name="belowLC"/>
  <outline>
    <contour>
      <point x="342" y="688" type="curve" smooth="yes"/>
      <point x="276" y="688"/>
      <point x="172" y="641"/>
      <point x="141" y="441" type="curve" smooth="yes"/>
      <point x="118" y="299"/>
      <point x="99" y="171"/>
      <point x="75" y="34" type="curve" smooth="yes"/>
      <point x="58" y="-58"/>
      <point x="44" y="-110"/>
      <point x="21" y="-145" type="curve" smooth="yes"/>
      <point x="1" y="-174"/>
      <point x="-17" y="-189"/>
      <point x="-35" y="-200" type="curve"/>
      <point x="-4" y="-197" type="line"/>
      <point x="-27" y="-173" type="line" smooth="yes"/>
      <point x="-47" y="-151"/>
      <point x="-68" y="-134"/>
      <point x="-95" y="-134" type="curve" smooth="yes"/>
      <point x="-117" y="-134"/>
      <point x="-136" y="-149"/>
      <point x="-139" y="-170" type="curve"/>
      <point x="-129" y="-207"/>
      <point x="-92" y="-228"/>
      <point x="-49" y="-228" type="curve" smooth="yes"/>
      <point x="-18" y="-228"/>
      <point x="13" y="-217"/>
      <point x="51" y="-182" type="curve" smooth="yes"/>
      <point x="102" y="-136"/>
      <point x="126" y="-64"/>
      <point x="145" y="34" type="curve" smooth="yes"/>
      <point x="172" y="167"/>
      <point x="193" y="314"/>
      <point x="215" y="448" type="curve" smooth="yes"/>
      <point x="243" y="624"/>
      <point x="301" y="658"/>
      <point x="362" y="670" type="curve"/>
      <point x="310" y="671" type="line"/>
      <point x="336" y="637" type="line" smooth="yes"/>
      <point x="365" y="602"/>
      <point x="381" y="586"/>
      <point x="409" y="586" type="curve" smooth="yes"/>
      <point x="426" y="586"/>
      <point x="441" y="598"/>
      <point x="448" y="621" type="curve"/>
      <point x="439" y="655"/>
      <point x="396" y="688"/>
    </contour>
    <contour>
      <point x="41" y="392" type="line"/>
      <point x="160" y="392" type="line"/>
      <point x="323" y="387" type="line"/>
      <point x="331" y="437" type="line"/>
      <point x="168" y="437" type="line"/>
      <point x="168" y="440" type="line"/>
      <point x="48" y="428" type="line"/>
    </contour>
  </outline>
</glyph>
<glyph name="i" format="2">
  <advance width="282"/>
  <unicode hex="0069"/>
  <anchor x="223" y="677" name="aboveLC"/>
  <anchor x="127" y="-20" name="belowLC"/>
  <anchor x="168" y="0" name="ogonek"/>
  <outline>
    <contour>
      <point x="80" y="36" type="curve" smooth="yes"/>
      <point x="80" y="4"/>
      <point x="104" y="-11"/>
      <point x="132" y="-11" type="curve" smooth="yes"/>
      <point x="199" y="-11"/>
      <point x="248" y="45"/>
      <point x="288" y="101" type="curve"/>
      <point x="265" y="118" type="line"/>
      <point x="229" y="75"/>
      <point x="201" y="53"/>
      <point x="180" y="53" type="curve" smooth="yes"/>
      <point x="170" y="53"/>
      <point x="160" y="60"/>
      <point x="160" y="73" type="curve" smooth="yes"/>
      <point x="160" y="83"/>
      <point x="163" y="102"/>
      <point x="168" y="125" type="curve" smooth="yes"/>
      <point x="234" y="439" type="line"/>
      <point x="221" y="449" type="line"/>
      <point x="60" y="402" type="line"/>
      <point x="57" y="374" type="line"/>
      <point x="164" y="366" type="line"/>
      <point x="148" y="380" type="line"/>
      <point x="90" y="105" type="line" smooth="yes"/>
      <point x="82" y="69"/>
      <point x="80" y="51"/>
    </contour>
    <contour>
      <point x="219" y="570" type="curve" smooth="yes"/>
      <point x="249" y="570"/>
      <point x="276" y="599"/>
      <point x="276" y="630" type="curve" smooth="yes"/>
      <point x="276" y="664"/>
      <point x="254" y="685"/>
      <point x="224" y="685" type="curve" smooth="yes"/>
      <point x="195" y="685"/>
      <point x="167" y="657"/>
      <point x="167" y="625" type="curve" smooth="yes"/>
      <point x="167" y="590"/>
      <point x="189" y="570"/>
    </contour>
  </outline>
</glyph>
<glyph name="m" format="2">
  <advance width="757"/>
  <unicode hex="006D"/>
  <anchor x="426" y="466" name="aboveLC"/>
  <anchor x="355" y="-20" name="belowLC"/>
  <outline>
    <contour>
      <point x="602" y="-11" type="curve" smooth="yes"/>
      <point x="669" y="-11"/>
      <point x="724" y="44"/>
      <point x="763" y="101" type="curve"/>
      <point x="740" y="118" type="line"/>
      <point x="704" y="75"/>
      <point x="677" y="53"/>
      <point x="653" y="53" type="curve" smooth="yes"/>
      <point x="643" y="53"/>
      <point x="634" y="59"/>
      <point x="634" y="72" type="curve" smooth="yes"/>
      <point x="634" y="81"/>
      <point x="640" y="100"/>
      <point x="646" y="125" type="curve" smooth="yes"/>
      <point x="688" y="295" type="line" smooth="yes"/>
      <point x="695" y="325"/>
      <point x="703" y="355"/>
      <point x="703" y="384" type="curve" smooth="yes"/>
      <point x="703" y="427"/>
      <point x="681" y="449"/>
      <point x="644" y="449" type="curve" smooth="yes"/>
      <point x="584" y="449"/>
      <point x="507" y="395"/>
      <point x="445" y="332" type="curve"/>
      <point x="441" y="296" type="line"/>
      <point x="509" y="354"/>
      <point x="558" y="384"/>
      <point x="590" y="384" type="curve" smooth="yes"/>
      <point x="610" y="384"/>
      <point x="621" y="374"/>
      <point x="621" y="343" type="curve" smooth="yes"/>
      <point x="621" y="324"/>
      <point x="614" y="295"/>
      <point x="607" y="264" type="curve" smooth="yes"/>
      <point x="568" y="104" type="line" smooth="yes"/>
      <point x="559" y="69"/>
      <point x="553" y="51"/>
      <point x="553" y="29" type="curve" smooth="yes"/>
      <point x="553" y="4"/>
      <point x="572" y="-11"/>
    </contour>
    <contour>
      <point x="145" y="0" type="line"/>
      <point x="157" y="65"/>
      <point x="168" y="128"/>
      <point x="182" y="194" type="curve" smooth="yes"/>
      <point x="210" y="324" type="line"/>
      <point x="233" y="439" type="line"/>
      <point x="220" y="449" type="line"/>
      <point x="60" y="402" type="line"/>
      <point x="57" y="374" type="line"/>
      <point x="168" y="366" type="line"/>
      <point x="148" y="380" type="line"/>
      <point x="67" y="0" type="line"/>
      <point x="77" y="-7" type="line"/>
    </contour>
    <contour>
      <point x="391" y="0" type="line"/>
      <point x="402" y="65"/>
      <point x="414" y="128"/>
      <point x="428" y="194" type="curve" smooth="yes"/>
      <point x="457" y="326" type="line" smooth="yes"/>
      <point x="461" y="345"/>
      <point x="465" y="366"/>
      <point x="465" y="384" type="curve" smooth="yes"/>
      <point x="465" y="427"/>
      <point x="444" y="449"/>
      <point x="405" y="449" type="curve" smooth="yes"/>
      <point x="344" y="449"/>
      <point x="262" y="395"/>
      <point x="199" y="331" type="curve"/>
      <point x="195" y="296" type="line"/>
      <point x="265" y="355"/>
      <point x="319" y="384"/>
      <point x="353" y="384" type="curve" smooth="yes"/>
      <point x="372" y="384"/>
      <point x="384" y="374"/>
      <point x="384" y="345" type="curve" smooth="yes"/>
      <point x="384" y="331"/>
      <point x="379" y="313"/>
      <point x="377" y="298" type="curve" smooth="yes"/>
      <point x="313" y="0" type="line"/>
      <point x="323" y="-7" type="line"/>
    </contour>
  </outline>
</glyph>
<glyph name="o" format="2">
  <advance width="453"/>
  <unicode hex="006F"/>
  <anchor x="295" y="466" name="aboveLC"/>
  <anchor x="189" y="-20" name="belowLC"/>
  <anchor x="380" y="442" name="hornLC"/>
  <anchor x="258" y="0" name="ogonek"/>
  <outline>
    <contour>
      <point x="205" y="-11" type="curve" smooth="yes"/>
      <point x="336" y="-11"/>
      <point x="444" y="126"/>
      <point x="444" y="286" type="curve" smooth="yes"/>
      <point x="444" y="392"/>
      <point x="379" y="449"/>
      <point x="291" y="449" type="curve" smooth="yes"/>
      <point x="159" y="449"/>
      <point x="48" y="315"/>
      <point x="48" y="151" type="curve" smooth="yes"/>
      <point x="48" y="44"/>
      <point x="118" y="-11"/>
    </contour>
    <contour>
      <point x="215" y="26" type="curve" smooth="yes"/>
      <point x="166" y="26"/>
      <point x="130" y="63"/>
      <point x="130" y="158" type="curve" smooth="yes"/>
      <point x="130" y="294"/>
      <point x="195" y="411"/>
      <point x="281" y="411" type="curve" smooth="yes"/>
      <point x="329" y="411"/>
      <point x="363" y="374"/>
      <point x="363" y="277" type="curve" smooth="yes"/>
      <point x="363" y="153"/>
      <point x="303" y="26"/>
    </contour>
  </outline>
</glyph>
<glyph name="s" format="2">
  <advance width="337"/>
  <unicode hex="0073"/>
  <anchor x="245" y="466" name="aboveLC"/>
  <anchor x="147" y="0" name="baseLC"/>
  <anchor x="146" y="-20" name="belowLC"/>
  <outline>
    <contour>
      <point x="130" y="1" type="line"/>
      <point x="115" y="65" type="line" smooth="yes"/>
      <point x="108" y="92"/>
      <point x="95" y="107"/>
      <point x="69" y="107" type="curve" smooth="yes"/>
      <point x="52" y="107"/>
      <point x="37" y="96"/>
      <point x="32" y="80" type="curve"/>
      <point x="39" y="23"/>
      <point x="77" y="-11"/>
      <point x="149" y="-11" type="curve" smooth="yes"/>
      <point x="246" y="-11"/>
      <point x="309" y="43"/>
      <point x="309" y="119" type="curve" smooth="yes"/>
      <point x="309" y="172"/>
      <point x="288" y="201"/>
      <point x="233" y="242" type="curve" smooth="yes"/>
      <point x="182" y="281"/>
      <point x="165" y="299"/>
      <point x="165" y="338" type="curve" smooth="yes"/>
      <point x="165" y="379"/>
      <point x="188" y="413"/>
      <point x="250" y="413" type="curve" smooth="yes"/>
      <point x="264" y="413"/>
      <point x="275" y="411"/>
      <point x="284" y="409" type="curve"/>
      <point x="253" y="436" type="line"/>
      <point x="270" y="383" type="line" smooth="yes"/>
      <point x="280" y="354"/>
      <point x="297" y="339"/>
      <point x="319" y="339" type="curve" smooth="yes"/>
      <point x="337" y="339"/>
      <point x="350" y="348"/>
      <point x="356" y="367" type="curve"/>
      <point x="342" y="425"/>
      <point x="300" y="449"/>
      <point x="242" y="449" type="curve" smooth="yes"/>
      <point x="152" y="449"/>
      <point x="93" y="391"/>
      <point x="93" y="318" type="curve" smooth="yes"/>
      <point x="93" y="260"/>
      <point x="128" y="226"/>
      <point x="174" y="191" type="curve" smooth="yes"/>
      <point x="226" y="153"/>
      <point x="235" y="129"/>
      <point x="235" y="100" type="curve" smooth="yes"/>
      <point x="235" y="53"/>
      <point x="199" y="23"/>
      <point x="137" y="23" type="curve" smooth="yes"/>
      <point x="121" y="23"/>
      <point x="112" y="25"/>
      <point x="92" y="31" type="curve"/>
    </contour>
  </outline>
</glyph>
<glyph name="v" format="2">
  <advance width="444"/>
  <unicode hex="0076"/>
  <anchor x="289" y="458" name="aboveLC"/>
  <anchor x="183" y="-20" name="belowLC"/>
  <outline>
    <contour>
      <point x="163" y="-1" type="curve"/>
      <point x="170" y="-6" type="line"/>
      <point x="201" y="-3" type="line"/>
      <point x="295" y="92"/>
      <point x="379" y="202"/>
      <point x="423" y="284" type="curve" smooth="yes"/>
      <point x="466" y="364"/>
      <point x="468" y="388"/>
      <point x="468" y="407" type="curve" smooth="yes"/>
      <point x="468" y="425"/>
      <point x="467" y="431"/>
      <point x="462" y="437" type="curve"/>
      <point x="456" y="444"/>
      <point x="444" y="449"/>
      <point x="426" y="449" type="curve" smooth="yes"/>
      <point x="395" y="449"/>
      <point x="374" y="429"/>
      <point x="374" y="382" type="curve" smooth="yes"/>
      <point x="374" y="371"/>
      <point x="377" y="356"/>
      <point x="379" y="343" type="curve" smooth="yes"/>
      <point x="392" y="276" type="line"/>
      <point x="402" y="339" type="line"/>
      <point x="396" y="328"/>
      <point x="391" y="317"/>
      <point x="386" y="306" type="curve" smooth="yes"/>
      <point x="338" y="217"/>
      <point x="289" y="143"/>
      <point x="219" y="62" type="curve"/>
      <point x="231" y="61" type="line"/>
      <point x="230" y="171"/>
      <point x="226" y="287"/>
      <point x="213" y="374" type="curve" smooth="yes"/>
      <point x="205" y="426"/>
      <point x="188" y="449"/>
      <point x="149" y="449" type="curve" smooth="yes"/>
      <point x="105" y="449"/>
      <point x="65" y="412"/>
      <point x="31" y="340" type="curve"/>
      <point x="52" y="324" type="line"/>
      <point x="82" y="369"/>
      <point x="96" y="381"/>
      <point x="112" y="381" type="curve" smooth="yes"/>
      <point x="125" y="381"/>
      <point x="134" y="376"/>
      <point x="138" y="340" type="curve" smooth="yes"/>
      <point x="151" y="241"/>
      <point x="159" y="139"/>
    </contour>
  </outline>
</glyph>
<glyph name="x" format="2">
  <advance width="483"/>
  <unicode hex="0078"/>
  <anchor x="314" y="466" name="aboveLC"/>
  <anchor x="208" y="-20" name="belowLC"/>
  <outline>
    <contour>
      <point x="-2" y="54" type="curve"/>
      <point x="0" y="9"/>
      <point x="35" y="-11"/>
      <point x="72" y="-11" type="curve" smooth="yes"/>
      <point x="99" y="-11"/>
      <point x="118" y="-3"/>
      <point x="138" y="20" type="curve" smooth="yes"/>
      <point x="179" y="67"/>
      <point x="219" y="129"/>
      <point x="268" y="211" type="curve"/>
      <point x="255" y="241" type="line"/>
      <point x="207" y="171"/>
      <point x="165" y="111"/>
      <point x="113" y="52" type="curve" smooth="yes"/>
      <point x="103" y="41"/>
      <point x="93" y="33"/>
      <point x="81" y="23" type="curve"/>
      <point x="112" y="12" type="line"/>
      <point x="88" y="53" type="line" smooth="yes"/>
      <point x="71" y="83"/>
      <point x="59" y="89"/>
      <point x="39" y="89" type="curve" smooth="yes"/>
      <point x="22" y="89"/>
      <point x="1" y="77"/>
    </contour>
    <contour>
      <point x="274" y="55" type="line" smooth="yes"/>
      <point x="290" y="0"/>
      <point x="310" y="-12"/>
      <point x="340" y="-12" type="curve" smooth="yes"/>
      <point x="391" y="-12"/>
      <point x="445" y="34"/>
      <point x="488" y="101" type="curve"/>
      <point x="465" y="118" type="line"/>
      <point x="433" y="78"/>
      <point x="402" y="53"/>
      <point x="379" y="53" type="curve" smooth="yes"/>
      <point x="354" y="53"/>
      <point x="342" y="63"/>
      <point x="328" y="112" type="curve" smooth="yes"/>
      <point x="253" y="369" type="line" smooth="yes"/>
      <point x="237" y="427"/>
      <point x="218" y="449"/>
      <point x="181" y="449" type="curve" smooth="yes"/>
      <point x="141" y="449"/>
      <point x="99" y="415"/>
      <point x="64" y="341" type="curve"/>
      <point x="85" y="324" type="line"/>
      <point x="115" y="374"/>
      <point x="138" y="383"/>
      <point x="152" y="383" type="curve" smooth="yes"/>
      <point x="172" y="383"/>
      <point x="178" y="372"/>
      <point x="189" y="334" type="curve" smooth="yes"/>
    </contour>
    <contour>
      <point x="273" y="201" type="line"/>
      <point x="315" y="264"/>
      <point x="360" y="323"/>
      <point x="410" y="379" type="curve" smooth="yes"/>
      <point x="421" y="392"/>
      <point x="433" y="403"/>
      <point x="445" y="413" type="curve"/>
      <point x="404" y="417" type="line"/>
      <point x="426" y="385" type="line" smooth="yes"/>
      <point x="444" y="358"/>
      <point x="460" y="353"/>
      <point x="479" y="353" type="curve" smooth="yes"/>
      <point x="501" y="353"/>
      <point x="519" y="371"/>
      <point x="519" y="399" type="curve"/>
      <point x="512" y="433"/>
      <point x="481" y="449"/>
      <point x="457" y="449" type="curve" smooth="yes"/>
      <point x="426" y="449"/>
      <point x="406" y="438"/>
      <point x="379" y="407" type="curve" smooth="yes"/>
      <point x="353" y="373"/>
      <point x="307" y="311"/>
      <point x="259" y="230" type="curve"/>
    </contour>
  </outline>
</glyph>
<glyph name="currency" format="2">
  <advance width="473"/>
  <unicode hex="00A4"/>
  <outline>
    <contour>
      <point x="374" y="392" type="line"/>
      <point x="419" y="418" type="line" smooth="yes"/>
      <point x="460" y="443"/>
      <point x="473" y="457"/>
      <point x="473" y="474" type="curve" smooth="yes"/>
      <point x="473" y="493"/>
      <point x="458" y="508"/>
      <point x="439" y="508" type="curve" smooth="yes"/>
      <point x="422" y="508"/>
      <point x="407" y="494"/>
      <point x="383" y="454" type="curve" smooth="yes"/>
      <point x="357" y="410" type="line"/>
    </contour>
    <contour>
      <point x="168" y="301" type="curve" smooth="yes"/>
      <point x="168" y="362"/>
      <point x="212" y="403"/>
      <point x="266" y="403" type="curve" smooth="yes"/>
      <point x="321" y="403"/>
      <point x="365" y="362"/>
      <point x="365" y="301" type="curve" smooth="yes"/>
      <point x="365" y="241"/>
      <point x="321" y="199"/>
      <point x="266" y="199" type="curve" smooth="yes"/>
      <point x="212" y="199"/>
      <point x="168" y="241"/>
    </contour>
    <contour>
      <point x="114" y="301" type="curve" smooth="yes"/>
      <point x="114" y="211"/>
      <point x="184" y="150"/>
      <point x="266" y="150" type="curve" smooth="yes"/>
      <point x="348" y="150"/>
      <point x="419" y="211"/>
      <point x="419" y="301" type="curve" smooth="yes"/>
      <point x="419" y="392"/>
      <point x="348" y="452"/>
      <point x="266" y="452" type="curve" smooth="yes"/>
      <point x="184" y="452"/>
      <point x="114" y="392"/>
    </contour>
    <contour>
      <point x="175" y="410" type="line"/>
      <point x="149" y="454" type="line" smooth="yes"/>
      <point x="126" y="494"/>
      <point x="112" y="508"/>
      <point x="94" y="508" type="curve" smooth="yes"/>
      <point x="75" y="508"/>
      <point x="60" y="493"/>
      <point x="60" y="474" type="curve" smooth="yes"/>
      <point x="60" y="457"/>
      <point x="74" y="443"/>
      <point x="115" y="418" type="curve" smooth="yes"/>
      <point x="159" y="392" type="line"/>
    </contour>
    <contour>
      <point x="159" y="210" type="line"/>
      <point x="115" y="184" type="line" smooth="yes"/>
      <point x="74" y="161"/>
      <point x="60" y="147"/>
      <point x="60" y="129" type="curve" smooth="yes"/>
      <point x="60" y="110"/>
      <point x="75" y="95"/>
      <point x="94" y="95" type="curve" smooth="yes"/>
      <point x="112" y="95"/>
      <point x="126" y="109"/>
      <point x="149" y="149" type="curve" smooth="yes"/>
      <point x="175" y="194" type="line"/>
    </contour>
    <contour>
      <point x="357" y="194" type="line"/>
      <point x="383" y="149" type="line" smooth="yes"/>
      <point x="408" y="109"/>
      <point x="422" y="95"/>
      <point x="439" y="95" type="curve" smooth="yes"/>
      <point x="458" y="95"/>
      <point x="473" y="110"/>
      <point x="473" y="129" type="curve" smooth="yes"/>
      <point x="473" y="147"/>
      <point x="460" y="161"/>
      <point x="419" y="184" type="curve" smooth="yes"/>
      <point x="375" y="211" type="line"/>
    </contour>
  </outline>
</glyph>
<glyph name="macron" format="2">
  <advance width="368"/>
  <unicode hex="00AF"/>
  <anchor x="255" y="478" name="_aboveLC"/>
  <anchor x="287" y="630" name="aboveLC"/>
  <outline>
    <contour>
      <point x="156" y="563" type="line"/>
      <point x="382" y="563" type="line"/>
      <point x="394" y="621" type="line"/>
      <point x="167" y="621" type="line"/>
    </contour>
  </outline>
</glyph>
<glyph name="onequarter" format="2">
  <advance width="800"/>
  <unicode hex="00BC"/>
  <outline>
    <contour>
      <point x="230" y="-14" type="line"/>
      <point x="687" y="586" type="line"/>
      <point x="655" y="610" type="line"/>
      <point x="199" y="10" type="line"/>
    </contour>
    <contour>
      <point x="287" y="232" type="line"/>
      <point x="292" y="257" type="line"/>
      <point x="203" y="267" type="line"/>
      <point x="164" y="267" type="line"/>
      <point x="75" y="257" type="line"/>
      <point x="69" y="232" type="line"/>
    </contour>
    <contour>
      <point x="207" y="232" type="line"/>
      <point x="267" y="517" type="line"/>
      <point x="287" y="599" type="line"/>
      <point x="280" y="605" type="line"/>
      <point x="141" y="573" type="line"/>
      <point x="136" y="548" type="line"/>
      <point x="223" y="553" type="line"/>
      <point x="209" y="569" type="line"/>
      <point x="141" y="232" type="line"/>
    </contour>
    <contour>
      <point x="750" y="89" type="line"/>
      <point x="759" y="134" type="line"/>
      <point x="506" y="134" type="line"/>
      <point x="507" y="125" type="line"/>
      <point x="689" y="322" type="line"/>
      <point x="677" y="322" type="line"/>
      <point x="609" y="-11" type="line"/>
      <point x="669" y="-11" type="line"/>
      <point x="746" y="368" type="line"/>
      <point x="697" y="368" type="line"/>
      <point x="479" y="133" type="line"/>
      <point x="471" y="89" type="line"/>
    </contour>
  </outline>
</glyph>
<glyph name="onehalf" format="2">
  <advance width="800"/>
  <unicode hex="00BD"/>
  <outline>
    <contour>
      <point x="212" y="-14" type="line"/>
      <point x="668" y="586" type="line"/>
      <point x="636" y="610" type="line"/>
      <point x="181" y="10" type="line"/>
    </contour>
    <contour>
      <point x="287" y="232" type="line"/>
      <point x="292" y="257" type="line"/>
      <point x="203" y="267" type="line"/>
      <point x="164" y="267" type="line"/>
      <point x="75" y="257" type="line"/>
      <point x="69" y="232" type="line"/>
    </contour>
    <contour>
      <point x="207" y="232" type="line"/>
      <point x="267" y="517" type="line"/>
      <point x="287" y="599" type="line"/>
      <point x="280" y="605" type="line"/>
      <point x="141" y="573" type="line"/>
      <point x="136" y="548" type="line"/>
      <point x="223" y="553" type="line"/>
      <point x="209" y="569" type="line"/>
      <point x="141" y="232" type="line"/>
    </contour>
    <contour>
      <point x="488" y="0" type="line"/>
      <point x="723" y="0" type="line"/>
      <point x="735" y="59" type="line"/>
      <point x="540" y="59" type="line"/>
      <point x="544" y="53" type="line"/>
      <point x="713" y="190"/>
      <point x="766" y="226"/>
      <point x="766" y="286" type="curve" smooth="yes"/>
      <point x="766" y="335"/>
      <point x="734" y="372"/>
      <point x="665" y="372" type="curve" smooth="yes"/>
      <point x="598" y="372"/>
      <point x="550" y="346"/>
      <point x="532" y="275" type="curve"/>
      <point x="534" y="254"/>
      <point x="545" y="243"/>
      <point x="562" y="243" type="curve" smooth="yes"/>
      <point x="584" y="243"/>
      <point x="596" y="255"/>
      <point x="598" y="294" type="curve" smooth="yes"/>
      <point x="603" y="353" type="line"/>
      <point x="575" y="316" type="line"/>
      <point x="593" y="334"/>
      <point x="616" y="342"/>
      <point x="640" y="342" type="curve" smooth="yes"/>
      <point x="676" y="342"/>
      <point x="697" y="322"/>
      <point x="697" y="283" type="curve" smooth="yes"/>
      <point x="697" y="238"/>
      <point x="667" y="197"/>
      <point x="496" y="45" type="curve"/>
    </contour>
  </outline>
</glyph>
<glyph name="Acircumflex" format="2">
  <advance width="623"/>
  <unicode hex="00C2"/>
  <anchor x="424" y="798" name="aboveUC"/>
  <anchor x="257" y="-20" name="belowLC"/>
  <anchor x="484" y="0" name="ogonek"/>
  <outline>
    <contour>
      <point x="-26" y="0" type="line"/>
      <point x="179" y="0" type="line"/>
      <point x="187" y="38" type="line"/>
      <point x="96" y="52" type="line"/>
      <point x="79" y="52" type="line"/>
      <point x="-19" y="38" type="line"/>
    </contour>
    <contour>
      <point x="30" y="0" type="line"/>
      <point x="81" y="0" type="line"/>
      <point x="368" y="546" type="line"/>
      <point x="353" y="541" type="line"/>
      <point x="426" y="0" type="line"/>
      <point x="516" y="0" type="line"/>
      <point x="427" y="614" type="line"/>
      <point x="369" y="614" type="line"/>
    </contour>
    <contour>
      <point x="177" y="218" type="line"/>
      <point x="441" y="218" type="line"/>
      <point x="451" y="262" type="line"/>
      <point x="191" y="262" type="line"/>
    </contour>
    <contour>
      <point x="333" y="0" type="line"/>
      <point x="582" y="0" type="line"/>
      <point x="589" y="38" type="line"/>
      <point x="478" y="52" type="line"/>
      <point x="460" y="52" type="line"/>
      <point x="341" y="38" type="line"/>
    </contour>
    <contour>
      <point x="437" y="789" type="line"/>
      <point x="403" y="789" type="line"/>
      <point x="263" y="676" type="line"/>
      <point x="276" y="653" type="line"/>
      <point x="453" y="753" type="line"/>
      <point x="375" y="753" type="line"/>
      <point x="523" y="653" type="line"/>
      <point x="545" y="675" type="line"/>
    </contour>
  </outline>
</glyph>
<glyph name="AE" format="2">
  <advance width="811"/>
  <unicode hex="00C6"/>
  <anchor x="604" y="634" name="aboveUC"/>
  <outline>
    <contour>
      <point x="-34" y="0" type="line"/>
      <point x="172" y="0" type="line"/>
      <point x="180" y="38" type="line"/>
      <point x="89" y="52" type="line"/>
      <point x="70" y="52" type="line"/>
      <point x="-26" y="38" type="line"/>
    </contour>
    <contour>
      <point x="19" y="0" type="line"/>
      <point x="73" y="0" type="line"/>
      <point x="495" y="614" type="line"/>
      <point x="448" y="614" type="line"/>
    </contour>
    <contour>
      <point x="197" y="220" type="line"/>
      <point x="441" y="220" type="line"/>
      <point x="448" y="264" type="line"/>
      <point x="227" y="264" type="line"/>
    </contour>
    <contour>
      <point x="284" y="0" type="line"/>
      <point x="403" y="0" type="line"/>
      <point x="413" y="52" type="line"/>
      <point x="406" y="52" type="line"/>
      <point x="291" y="38" type="line"/>
    </contour>
    <contour>
      <point x="331" y="575" type="line"/>
      <point x="444" y="562" type="line"/>
      <point x="506" y="562" type="line"/>
      <point x="517" y="614" type="line"/>
      <point x="338" y="614" type="line"/>
    </contour>
    <contour>
      <point x="361" y="0" type="line"/>
      <point x="450" y="0" type="line"/>
      <point x="465" y="94"/>
      <point x="482" y="190"/>
      <point x="499" y="285" type="curve" smooth="yes"/>
      <point x="562" y="614" type="line"/>
      <point x="472" y="614" type="line"/>
      <point x="458" y="519"/>
      <point x="441" y="424"/>
      <point x="424" y="329" type="curve" smooth="yes"/>
    </contour>
    <contour>
      <point x="403" y="0" type="line"/>
      <point x="746" y="0" type="line"/>
      <point x="782" y="162" type="line"/>
      <point x="732" y="162" type="line"/>
      <point x="674" y="0" type="line"/>
      <point x="728" y="46" type="line"/>
      <point x="413" y="46" type="line"/>
    </contour>
    <contour>
      <point x="460" y="292" type="line"/>
      <point x="666" y="292" type="line"/>
      <point x="673" y="335" type="line"/>
      <point x="468" y="335" type="line"/>
    </contour>
    <contour>
      <point x="507" y="567" type="line"/>
      <point x="779" y="567" type="line"/>
      <point x="747" y="614" type="line"/>
      <point x="746" y="451" type="line"/>
      <point x="795" y="451" type="line"/>
      <point x="817" y="614" type="line"/>
      <point x="517" y="614" type="line"/>
    </contour>
    <contour>
      <point x="636" y="207" type="line"/>
      <point x="677" y="207" type="line"/>
      <point x="717" y="422" type="line"/>
      <point x="677" y="422" type="line"/>
      <point x="643" y="326" type="line"/>
      <point x="640" y="308" type="line"/>
    </contour>
  </outline>
</glyph>
<glyph name="Iacute" format="2">
  <advance width="331"/>
  <unicode hex="00CD"/>
  <anchor x="299" y="798" name="aboveUC"/>
  <anchor x="130" y="-20" name="belowLC"/>
  <anchor x="165" y="0" name="ogonek"/>
  <outline>
    <contour>
      <point x="12" y="0" type="line"/>
      <point x="261" y="0" type="line"/>
      <point x="268" y="38" type="line"/>
      <point x="157" y="52" type="line"/>
      <point x="138" y="52" type="line"/>
      <point x="20" y="38" type="line"/>
    </contour>
    <contour>
      <point x="90" y="0" type="line"/>
      <point x="178" y="0" type="line"/>
      <point x="194" y="94"/>
      <point x="210" y="190"/>
      <point x="228" y="285" type="curve" smooth="yes"/>
      <point x="289" y="614" type="line"/>
      <point x="200" y="614" type="line"/>
      <point x="185" y="519"/>
      <point x="169" y="424"/>
      <point x="151" y="329" type="curve" smooth="yes"/>
    </contour>
    <contour>
      <point x="110" y="575" type="line"/>
      <point x="224" y="562" type="line"/>
      <point x="242" y="562" type="line"/>
      <point x="358" y="575" type="line"/>
      <point x="367" y="614" type="line"/>
      <point x="118" y="614" type="line"/>
    </contour>
    <contour>
      <point x="205" y="675" type="curve"/>
      <point x="218" y="654" type="line"/>
      <point x="264" y="674"/>
      <point x="311" y="693"/>
      <point x="357" y="713" type="curve" smooth="yes"/>
      <point x="402" y="734"/>
      <point x="408" y="748"/>
      <point x="408" y="765" type="curve" smooth="yes"/>
      <point x="408" y="785"/>
      <point x="392" y="798"/>
      <point x="373" y="798" type="curve" smooth="yes"/>
      <point x="350" y="798"/>
      <point x="340" y="789"/>
      <point x="310" y="764" type="curve" smooth="yes"/>
      <point x="275" y="735"/>
      <point x="240" y="705"/>
    </contour>
  </outline>
</glyph>
<glyph name="Ntilde" format="2">
  <advance width="666"/>
  <unicode hex="00D1"/>
  <anchor x="464" y="802" name="aboveUC"/>
  <anchor x="332" y="-20" name="belowLC"/>
  <outline>
    <contour>
      <point x="6" y="0" type="line"/>
      <point x="222" y="0" type="line"/>
      <point x="229" y="38" type="line"/>
      <point x="124" y="52" type="line"/>
      <point x="105" y="52" type="line"/>
      <point x="14" y="38" type="line"/>
    </contour>
    <contour>
      <point x="80" y="0" type="line"/>
      <point x="126" y="0" type="line"/>
      <point x="241" y="609" type="line"/>
      <point x="196" y="614" type="line"/>
    </contour>
    <contour>
      <point x="504" y="-8" type="line"/>
      <point x="538" y="-8" type="line"/>
      <point x="552" y="81" type="line"/>
      <point x="258" y="614" type="line"/>
      <point x="113" y="614" type="line"/>
      <point x="104" y="575" type="line"/>
      <point x="219" y="563" type="line"/>
      <point x="172" y="586" type="line"/>
    </contour>
    <contour>
      <point x="498" y="575" type="line"/>
      <point x="612" y="562" type="line"/>
      <point x="631" y="562" type="line"/>
      <point x="718" y="575" type="line"/>
      <point x="725" y="614" type="line"/>
      <point x="506" y="614" type="line"/>
    </contour>
    <contour>
      <point x="538" y="-8" type="line"/>
      <point x="654" y="614" type="line"/>
      <point x="607" y="614" type="line"/>
      <point x="505" y="59" type="line"/>
    </contour>
    <contour>
      <point x="272" y="674" type="curve"/>
      <point x="299" y="665" type="line"/>
      <point x="322" y="719"/>
      <point x="345" y="737"/>
      <point x="374" y="737" type="curve" smooth="yes"/>
      <point x="402" y="737"/>
      <point x="417" y="713"/>
      <point x="436" y="694" type="curve" smooth="yes"/>
      <point x="453" y="678"/>
      <point x="472" y="663"/>
      <point x="506" y="663" type="curve" smooth="yes"/>
      <point x="563" y="663"/>
      <point x="598" y="701"/>
      <point x="624" y="782" type="curve"/>
      <point x="598" y="792" type="line"/>
      <point x="575" y="737"/>
      <point x="552" y="718"/>
      <point x="521" y="718" type="curve" smooth="yes"/>
      <point x="494" y="718"/>
      <point x="481" y="743"/>
      <point x="460" y="761" type="curve" smooth="yes"/>
      <point x="443" y="778"/>
      <point x="425" y="793"/>
      <point x="391" y="793" type="curve" smooth="yes"/>
      <point x="335" y="793"/>
      <point x="297" y="755"/>
    </contour>
  </outline>
</glyph>
<glyph name="Ocircumflex" format="2">
  <advance width="608"/>
  <unicode hex="00D4"/>
  <anchor x="416" y="803" name="aboveUC"/>
  <anchor x="279" y="-19" name="belowLC"/>
  <anchor x="523" y="621" name="hornLC"/>
  <anchor x="362" y="0" name="ogonek"/>
  <outline>
    <contour>
      <point x="279" y="-13" type="curve" smooth="yes"/>
      <point x="475" y="-13"/>
      <point x="603" y="164"/>
      <point x="603" y="375" type="curve" smooth="yes"/>
      <point x="603" y="529"/>
      <point x="517" y="628"/>
      <point x="379" y="628" type="curve" smooth="yes"/>
      <point x="188" y="628"/>
      <point x="58" y="449"/>
      <point x="58" y="238" type="curve" smooth="yes"/>
      <point x="58" y="80"/>
      <point x="147" y="-13"/>
    </contour>
    <contour>
      <point x="292" y="33" type="curve" smooth="yes"/>
      <point x="192" y="33"/>
      <point x="147" y="113"/>
      <point x="147" y="233" type="curve" smooth="yes"/>
      <point x="147" y="430"/>
      <point x="238" y="581"/>
      <point x="369" y="581" type="curve" smooth="yes"/>
      <point x="471" y="581"/>
      <point x="515" y="504"/>
      <point x="515" y="379" type="curve" smooth="yes"/>
      <point x="515" y="184"/>
      <point x="424" y="33"/>
    </contour>
    <contour>
      <point x="429" y="793" type="line"/>
      <point x="396" y="793" type="line"/>
      <point x="255" y="679" type="line"/>
      <point x="269" y="656" type="line"/>
      <point x="446" y="758" type="line"/>
      <point x="368" y="758" type="line"/>
      <point x="516" y="656" type="line"/>
      <point x="538" y="679" type="line"/>
    </contour>
  </outline>
</glyph>
<glyph name="Oslash" format="2">
  <advance width="608"/>
  <unicode hex="00D8"/>
  <anchor x="384" y="634" name="aboveUC"/>
  <outline>
    <contour>
      <point x="636" y="602" type="line"/>
      <point x="600" y="634" type="line"/>
      <point x="6" y="11" type="line"/>
      <point x="41" y="-20" type="line"/>
    </contour>
    <contour>
      <point x="277" y="-13" type="curve" smooth="yes"/>
      <point x="466" y="-13"/>
      <point x="603" y="164"/>
      <point x="603" y="375" type="curve" smooth="yes"/>
      <point x="603" y="525"/>
      <point x="517" y="628"/>
      <point x="382" y="628" type="curve" smooth="yes"/>
      <point x="197" y="628"/>
      <point x="58" y="449"/>
      <point x="58" y="238" type="curve" smooth="yes"/>
      <point x="58" y="80"/>
      <point x="146" y="-13"/>
    </contour>
    <contour>
      <point x="287" y="32" type="curve" smooth="yes"/>
      <point x="192" y="32"/>
      <point x="144" y="96"/>
      <point x="144" y="239" type="curve" smooth="yes"/>
      <point x="144" y="431"/>
      <point x="244" y="582"/>
      <point x="373" y="582" type="curve" smooth="yes"/>
      <point x="471" y="582"/>
      <point x="517" y="520"/>
      <point x="517" y="375" type="curve" smooth="yes"/>
      <point x="517" y="184"/>
      <point x="417" y="32"/>
    </contour>
  </outline>
</glyph>
<glyph name="igrave" format="2">
  <advance width="282"/>
  <unicode hex="00EC"/>
  <anchor x="253" y="684" name="aboveLC"/>
  <anchor x="127" y="-20" name="belowLC"/>
  <anchor x="168" y="0" name="ogonek"/>
  <outline>
    <contour>
      <point x="80" y="36" type="curve" smooth="yes"/>
      <point x="80" y="4"/>
      <point x="104" y="-11"/>
      <point x="132" y="-11" type="curve" smooth="yes"/>
      <point x="199" y="-11"/>
      <point x="248" y="45"/>
      <point x="288" y="101" type="curve"/>
      <point x="265" y="118" type="line"/>
      <point x="229" y="75"/>
      <point x="201" y="53"/>
      <point x="180" y="53" type="curve" smooth="yes"/>
      <point x="170" y="53"/>
      <point x="160" y="60"/>
      <point x="160" y="73" type="curve" smooth="yes"/>
      <point x="160" y="83"/>
      <point x="163" y="102"/>
      <point x="168" y="125" type="curve" smooth="yes"/>
      <point x="234" y="439" type="line"/>
      <point x="221" y="449" type="line"/>
      <point x="60" y="402" type="line"/>
      <point x="57" y="374" type="line"/>
      <point x="164" y="366" type="line"/>
      <point x="148" y="380" type="line"/>
      <point x="90" y="105" type="line" smooth="yes"/>
      <point x="82" y="69"/>
      <point x="80" y="51"/>
    </contour>
    <contour>
      <point x="225" y="506" type="line"/>
      <point x="203" y="556"/>
      <point x="182" y="608"/>
      <point x="160" y="658" type="curve" smooth="yes"/>
      <point x="148" y="686"/>
      <point x="131" y="702"/>
      <point x="110" y="702" type="curve" smooth="yes"/>
      <point x="91" y="702"/>
      <point x="72" y="690"/>
      <point x="72" y="668" type="curve" smooth="yes"/>
      <point x="72" y="651"/>
      <point x="79" y="636"/>
      <point x="95" y="618" type="curve" smooth="yes"/>
      <point x="131" y="575"/>
      <point x="167" y="534"/>
      <point x="203" y="492" type="curve"/>
    </contour>
  </outline>
</glyph>
<glyph name="thorn" format="2">
  <advance width="468"/>
  <unicode hex="00FE"/>
  <anchor x="237" y="677" name="aboveLC"/>
  <anchor x="313" y="-5" name="belowLC"/>
  <outline>
    <contour>
      <point x="14" y="-218" type="line"/>
      <point x="91" y="-218" type="line"/>
      <point x="104" y="-137"/>
      <point x="119" y="-58"/>
      <point x="138" y="22" type="curve"/>
      <point x="142" y="34" type="line"/>
      <point x="198" y="306" type="line"/>
      <point x="201" y="320" type="line"/>
      <point x="273" y="670" type="line"/>
      <point x="263" y="678" type="line"/>
      <point x="100" y="632" type="line"/>
      <point x="94" y="604" type="line"/>
      <point x="204" y="595" type="line"/>
      <point x="184" y="614" type="line"/>
      <point x="174" y="553"/>
      <point x="162" y="493"/>
      <point x="149" y="429" type="curve" smooth="yes"/>
    </contour>
    <contour>
      <point x="91" y="39" type="line"/>
      <point x="121" y="1"/>
      <point x="147" y="-11"/>
      <point x="184" y="-11" type="curve" smooth="yes"/>
      <point x="318" y="-11"/>
      <point x="471" y="177"/>
      <point x="471" y="334" type="curve" smooth="yes"/>
      <point x="471" y="419"/>
      <point x="431" y="449"/>
      <point x="385" y="449" type="curve" smooth="yes"/>
      <point x="319" y="449"/>
      <point x="221" y="382"/>
      <point x="164" y="276" type="curve"/>
      <point x="173" y="270" type="line"/>
      <point x="237" y="342"/>
      <point x="296" y="384"/>
      <point x="337" y="384" type="curve" smooth="yes"/>
      <point x="372" y="384"/>
      <point x="393" y="356"/>
      <point x="393" y="297" type="curve" smooth="yes"/>
      <point x="393" y="234"/>
      <point x="370" y="168"/>
      <point x="334" y="120" type="curve" smooth="yes"/>
      <point x="302" y="78"/>
      <point x="262" y="50"/>
      <point x="217" y="50" type="curve" smooth="yes"/>
      <point x="190" y="50"/>
      <point x="160" y="63"/>
      <point x="129" y="95" type="curve"/>
    </contour>
    <contour>
      <point x="54" y="-170" type="line"/>
      <point x="-52" y="-187" type="line"/>
      <point x="-58" y="-218" type="line"/>
      <point x="177" y="-218" type="line"/>
      <point x="184" y="-187" type="line"/>
      <point x="74" y="-170" type="line"/>
    </contour>
  </outline>
</glyph>
<glyph name="ydieresis" format="2">
  <advance width="443"/>
  <unicode hex="00FF"/>
  <anchor x="345" y="648" name="aboveLC"/>
  <anchor x="8" y="-230" name="belowLC"/>
  <outline>
    <contour>
      <point x="-72" y="-163" type="curve"/>
      <point x="-70" y="-196"/>
      <point x="-46" y="-218"/>
      <point x="-5" y="-218" type="curve" smooth="yes"/>
      <point x="47" y="-218"/>
      <point x="100" y="-180"/>
      <point x="159" y="-117" type="curve" smooth="yes"/>
      <point x="197" y="-74"/>
      <point x="223" y="-35"/>
      <point x="248" y="0" type="curve" smooth="yes"/>
      <point x="299" y="76"/>
      <point x="337" y="145"/>
      <point x="371" y="206" type="curve" smooth="yes"/>
      <point x="405" y="265"/>
      <point x="425" y="304"/>
      <point x="445" y="344" type="curve" smooth="yes"/>
      <point x="463" y="380"/>
      <point x="470" y="396"/>
      <point x="470" y="420" type="curve" smooth="yes"/>
      <point x="470" y="440"/>
      <point x="455" y="454"/>
      <point x="433" y="454" type="curve" smooth="yes"/>
      <point x="404" y="454"/>
      <point x="391" y="433"/>
      <point x="360" y="328" type="curve" smooth="yes"/>
      <point x="330" y="221"/>
      <point x="297" y="149"/>
      <point x="232" y="27" type="curve"/>
      <point x="205" y="-15"/>
      <point x="174" y="-54"/>
      <point x="139" y="-89" type="curve" smooth="yes"/>
      <point x="101" y="-128"/>
      <point x="57" y="-160"/>
      <point x="11" y="-183" type="curve"/>
      <point x="80" y="-175" type="line"/>
      <point x="54" y="-156" type="line" smooth="yes"/>
      <point x="27" y="-134"/>
      <point x="6" y="-121"/>
      <point x="-21" y="-121" type="curve" smooth="yes"/>
      <point x="-47" y="-121"/>
      <point x="-68" y="-136"/>
    </contour>
    <contour>
      <point x="240" y="23" type="line"/>
      <point x="235" y="115"/>
      <point x="229" y="215"/>
      <point x="217" y="329" type="curve" smooth="yes"/>
      <point x="206" y="428"/>
      <point x="186" y="449"/>
      <point x="150" y="449" type="curve" smooth="yes"/>
      <point x="111" y="449"/>
      <point x="69" y="417"/>
      <point x="31" y="340" type="curve"/>
      <point x="52" y="324" type="line"/>
      <point x="83" y="371"/>
      <point x="96" y="381"/>
      <point x="111" y="381" type="curve" smooth="yes"/>
      <point x="127" y="381"/>
      <point x="133" y="369"/>
      <point x="146" y="260" type="curve" smooth="yes"/>
      <point x="162" y="135"/>
      <point x="174" y="66"/>
      <point x="184" y="-45" type="curve"/>
    </contour>
    <contour>
      <point x="240" y="571" type="curve" smooth="yes"/>
      <point x="268" y="571"/>
      <point x="293" y="594"/>
      <point x="293" y="627" type="curve" smooth="yes"/>
      <point x="293" y="652"/>
      <point x="274" y="669"/>
      <point x="249" y="669" type="curve" smooth="yes"/>
      <point x="221" y="669"/>
      <point x="195" y="647"/>
      <point x="195" y="614" type="curve" smooth="yes"/>
      <point x="195" y="587"/>
      <point x="216" y="571"/>
    </contour>
    <contour>
      <point x="420" y="571" type="curve" smooth="yes"/>
      <point x="449" y="571"/>
      <point x="474" y="594"/>
      <point x="474" y="627" type="curve" smooth="yes"/>
      <point x="474" y="652"/>
      <point x="455" y="669"/>
      <point x="430" y="669" type="curve" smooth="yes"/>
      <point x="403" y="669"/>
      <point x="377" y="647"/>
      <point x="377" y="614" type="curve" smooth="yes"/>
      <point x="377" y="587"/>
      <point x="398" y="571"/>
    </contour>
  </outline>
</glyph>
<glyph name="florin" format="2">
  <advance width="473"/>
  <unicode hex="0192"/>
  <outline>
    <contour>
      <point x="134" y="318" type="line"/>
      <point x="404" y="318" type="line"/>
      <point x="414" y="365" type="line"/>
      <point x="143" y="365" type="line"/>
    </contour>
    <contour>
      <point x="303" y="322" type="line" smooth="yes"/>
      <point x="326" y="432"/>
      <point x="334" y="486"/>
      <point x="363" y="529" type="curve" smooth="yes"/>
      <point x="377" y="549"/>
      <point x="395" y="565"/>
      <point x="423" y="576" type="curve"/>
      <point x="391" y="576" type="line"/>
      <point x="415" y="543" type="line" smooth="yes"/>
      <point x="433" y="519"/>
      <point x="450" y="512"/>
      <point x="470" y="512" type="curve" smooth="yes"/>
      <point x="497" y="512"/>
      <point x="516" y="529"/>
      <point x="523" y="555" type="curve"/>
      <point x="517" y="584"/>
      <point x="488" y="605"/>
      <point x="441" y="605" type="curve" smooth="yes"/>
      <point x="404" y="605"/>
      <point x="364" y="592"/>
      <point x="327" y="553" type="curve" smooth="yes"/>
      <point x="284" y="508"/>
      <point x="257" y="443"/>
      <point x="231" y="326" type="curve" smooth="yes"/>
      <point x="204" y="198" type="line" smooth="yes"/>
      <point x="179" y="86"/>
      <point x="171" y="26"/>
      <point x="142" y="-16" type="curve" smooth="yes"/>
      <point x="127" y="-36"/>
      <point x="110" y="-53"/>
      <point x="82" y="-64" type="curve"/>
      <point x="114" y="-62" type="line"/>
      <point x="89" y="-30" type="line" smooth="yes"/>
      <point x="72" y="-7"/>
      <point x="55" y="0"/>
      <point x="34" y="0" type="curve" smooth="yes"/>
      <point x="7" y="0"/>
      <point x="-10" y="-15"/>
      <point x="-18" y="-40" type="curve"/>
      <point x="-13" y="-70"/>
      <point x="17" y="-92"/>
      <point x="64" y="-92" type="curve" smooth="yes"/>
      <point x="101" y="-92"/>
      <point x="141" y="-79"/>
      <point x="177" y="-41" type="curve" smooth="yes"/>
      <point x="225" y="7"/>
      <point x="249" y="79"/>
      <point x="278" y="213" type="curve" smooth="yes"/>
    </contour>
  </outline>
</glyph>
<glyph name="uni02CD" format="2">
  <advance width="536"/>
  <unicode hex="02CD"/>
  <outline>
    <contour>
      <point x="14" y="44" type="curve" smooth="yes"/>
      <point x="10" y="35"/>
      <point x="9" y="25"/>
      <point x="9" y="19" type="curve" smooth="yes"/>
      <point x="9" y="0"/>
      <point x="21" y="-2"/>
      <point x="39" y="-2" type="curve" smooth="yes"/>
      <point x="80" y="-2"/>
      <point x="127" y="0"/>
      <point x="209" y="0" type="curve" smooth="yes"/>
      <point x="244" y="0"/>
      <point x="317" y="-1"/>
      <point x="354" y="-1" type="curve" smooth="yes"/>
      <point x="358" y="-1"/>
      <point x="376" y="-1"/>
      <point x="382" y="2" type="curve" smooth="yes"/>
      <point x="398" y="10"/>
      <point x="405" y="39"/>
      <point x="405" y="52" type="curve" smooth="yes"/>
      <point x="405" y="70"/>
      <point x="394" y="73"/>
      <point x="372" y="73" type="curve" smooth="yes"/>
      <point x="327" y="73"/>
      <point x="240" y="71"/>
      <point x="194" y="71" type="curve" smooth="yes"/>
      <point x="135" y="71"/>
      <point x="107" y="72"/>
      <point x="52" y="72" type="curve" smooth="yes"/>
      <point x="34" y="72"/>
      <point x="24" y="67"/>
    </contour>
  </outline>
</glyph>
<glyph name="breve" format="2">
  <advance width="368"/>
  <unicode hex="02D8"/>
  <anchor x="234" y="461" name="_aboveLC"/>
  <anchor x="280" y="676" name="aboveLC"/>
  <outline>
    <contour>
      <point x="246" y="527" type="curve" smooth="yes"/>
      <point x="335" y="527"/>
      <point x="384" y="598"/>
      <point x="404" y="664" type="curve"/>
      <point x="373" y="676" type="line"/>
      <point x="348" y="627"/>
      <point x="309" y="589"/>
      <point x="253" y="589" type="curve" smooth="yes"/>
      <point x="196" y="589"/>
      <point x="169" y="628"/>
      <point x="152" y="676" type="curve"/>
      <point x="120" y="661" type="line"/>
      <point x="126" y="595"/>
      <point x="156" y="527"/>
    </contour>
  </outline>
</glyph>
<glyph name="dotaccent" format="2">
  <advance width="368"/>
  <unicode hex="02D9"/>
  <anchor x="249" y="466" name="_aboveLC"/>
  <anchor x="288" y="652" name="aboveLC"/>
  <outline>
    <contour>
      <point x="280" y="572" type="curve" smooth="yes"/>
      <point x="309" y="572"/>
      <point x="334" y="600"/>
      <point x="334" y="632" type="curve" smooth="yes"/>
      <point x="334" y="662"/>
      <point x="314" y="682"/>
      <point x="286" y="682" type="curve" smooth="yes"/>
      <point x="257" y="682"/>
      <point x="231" y="655"/>
      <point x="231" y="622" type="curve" smooth="yes"/>
      <point x="231" y="592"/>
      <point x="252" y="572"/>
    </contour>
  </outline>
</glyph>
<glyph name="ring" format="2">
  <advance width="368"/>
  <unicode hex="02DA"/>
  <anchor x="241" y="470" name="_aboveLC"/>
  <anchor x="291" y="703" name="aboveLC"/>
  <outline>
    <contour>
      <point x="262" y="505" type="curve" smooth="yes"/>
      <point x="313" y="505"/>
      <point x="368" y="542"/>
      <point x="368" y="611" type="curve" smooth="yes"/>
      <point x="368" y="663"/>
      <point x="325" y="694"/>
      <point x="277" y="694" type="curve" smooth="yes"/>
      <point x="227" y="694"/>
      <point x="171" y="656"/>
      <point x="171" y="590" type="curve" smooth="yes"/>
      <point x="171" y="538"/>
      <point x="211" y="505"/>
    </contour>
    <contour>
      <point x="264" y="540" type="curve" smooth="yes"/>
      <point x="229" y="540"/>
      <point x="214" y="567"/>
      <point x="214" y="592" type="curve" smooth="yes"/>
      <point x="214" y="625"/>
      <point x="238" y="659"/>
      <point x="276" y="659" type="curve" smooth="yes"/>
      <point x="309" y="659"/>
      <point x="324" y="633"/>
      <point x="324" y="608" type="curve" smooth="yes"/>
      <point x="324" y="572"/>
      <point x="298" y="540"/>
    </contour>
  </outline>
</glyph>
<glyph name="quoteright" format="2">
  <advance width="263"/>
  <unicode hex="2019"/>
  <outline>
    <contour>
      <point x="210" y="600" type="curve" smooth="yes"/>
      <point x="182" y="600"/>
      <point x="157" y="580"/>
      <point x="157" y="538" type="curve" smooth="yes"/>
      <point x="157" y="522"/>
      <point x="166" y="506"/>
      <point x="180" y="487" type="curve"/>
      <point x="209" y="447" type="line"/>
      <point x="211" y="487" type="line"/>
      <point x="177" y="432"/>
      <point x="152" y="403"/>
      <point x="103" y="364" type="curve"/>
      <point x="122" y="339" type="line"/>
      <point x="208" y="395"/>
      <point x="265" y="465"/>
      <point x="265" y="546" type="curve" smooth="yes"/>
      <point x="265" y="558"/>
      <point x="263" y="569"/>
      <point x="261" y="580" type="curve"/>
      <point x="244" y="595"/>
      <point x="230" y="600"/>
    </contour>
  </outline>
</glyph>
<glyph name="quotesinglbase" format="2">
  <advance width="271"/>
  <unicode hex="201A"/>
  <outline>
    <contour>
      <point x="118" y="111" type="curve" smooth="yes"/>
      <point x="90" y="111"/>
      <point x="65" y="91"/>
      <point x="65" y="49" type="curve" smooth="yes"/>
      <point x="65" y="33"/>
      <point x="74" y="17"/>
      <point x="88" y="-2" type="curve"/>
      <point x="117" y="-42" type="line"/>
      <point x="119" y="-2" type="line"/>
      <point x="85" y="-57"/>
      <point x="60" y="-86"/>
      <point x="11" y="-125" type="curve"/>
      <point x="30" y="-150" type="line"/>
      <point x="116" y="-94"/>
      <point x="173" y="-24"/>
      <point x="173" y="57" type="curve" smooth="yes"/>
      <point x="173" y="69"/>
      <point x="171" y="80"/>
      <point x="169" y="91" type="curve"/>
      <point x="152" y="106"/>
      <point x="138" y="111"/>
    </contour>
  </outline>
</glyph>
<glyph name="quotedblbase" format="2">
  <advance width="456"/>
  <unicode hex="201E"/>
  <outline>
    <contour>
      <point x="303" y="111" type="curve" smooth="yes"/>
      <point x="275" y="111"/>
      <point x="250" y="91"/>
      <point x="250" y="49" type="curve" smooth="yes"/>
      <point x="250" y="33"/>
      <point x="259" y="17"/>
      <point x="273" y="-2" type="curve"/>
      <point x="302" y="-42" type="line"/>
      <point x="304" y="-2" type="line"/>
      <point x="270" y="-57"/>
      <point x="245" y="-86"/>
      <point x="195" y="-125" type="curve"/>
      <point x="215" y="-150" type="line"/>
      <point x="301" y="-94"/>
      <point x="358" y="-24"/>
      <point x="358" y="57" type="curve" smooth="yes"/>
      <point x="358" y="69"/>
      <point x="356" y="80"/>
      <point x="354" y="91" type="curve"/>
      <point x="337" y="106"/>
      <point x="322" y="111"/>
    </contour>
    <contour>
      <point x="118" y="111" type="curve" smooth="yes"/>
      <point x="90" y="111"/>
      <point x="65" y="91"/>
      <point x="65" y="49" type="curve" smooth="yes"/>
      <point x="65" y="33"/>
      <point x="74" y="17"/>
      <point x="88" y="-2" type="curve"/>
      <point x="117" y="-42" type="line"/>
      <point x="119" y="-2" type="line"/>
      <point x="85" y="-57"/>
      <point x="60" y="-86"/>
      <point x="11" y="-125" type="curve"/>
      <point x="30" y="-150" type="line"/>
      <point x="116" y="-94"/>
      <point x="173" y="-24"/>
      <point x="173" y="57" type="curve" smooth="yes"/>
      <point x="173" y="69"/>
      <point x="171" y="80"/>
      <point x="169" y="91" type="curve"/>
      <point x="152" y="106"/>
      <point x="138" y="111"/>
    </contour>
  </outline>
</glyph>
<glyph name="dagger" format="2">
  <advance width="448"/>
  <unicode hex="2020"/>
  <outline>
    <contour>
      <point x="68" y="437" type="curve" smooth="yes"/>
      <point x="68" y="417"/>
      <point x="79" y="408"/>
      <point x="104" y="408" type="curve" smooth="yes"/>
      <point x="128" y="408"/>
      <point x="179" y="418"/>
      <point x="213" y="423" type="curve" smooth="yes"/>
      <point x="276" y="432" type="line"/>
      <point x="281" y="455" type="line"/>
      <point x="220" y="465" type="line" smooth="yes"/>
      <point x="189" y="470"/>
      <point x="142" y="480"/>
      <point x="118" y="480" type="curve" smooth="yes"/>
      <point x="88" y="480"/>
      <point x="68" y="467"/>
    </contour>
    <contour>
      <point x="163" y="-69" type="curve"/>
      <point x="189" y="-69" type="line"/>
      <point x="241" y="129"/>
      <point x="264" y="220"/>
      <point x="275" y="276" type="curve" smooth="yes"/>
      <point x="279" y="301"/>
      <point x="282" y="320"/>
      <point x="284" y="342" type="curve" smooth="yes"/>
      <point x="287" y="367"/>
      <point x="288" y="396"/>
      <point x="289" y="443" type="curve"/>
      <point x="266" y="443" type="line"/>
      <point x="240" y="366"/>
      <point x="225" y="329"/>
      <point x="215" y="269" type="curve" smooth="yes"/>
      <point x="208" y="230"/>
      <point x="190" y="116"/>
    </contour>
    <contour>
      <point x="322" y="659" type="curve" smooth="yes"/>
      <point x="297" y="659"/>
      <point x="282" y="643"/>
      <point x="278" y="617" type="curve" smooth="yes"/>
      <point x="272" y="587"/>
      <point x="273" y="548"/>
      <point x="269" y="506" type="curve" smooth="yes"/>
      <point x="266" y="443" type="line"/>
      <point x="289" y="443" type="line"/>
      <point x="311" y="506" type="line" smooth="yes"/>
      <point x="324" y="547"/>
      <point x="351" y="608"/>
      <point x="351" y="631" type="curve" smooth="yes"/>
      <point x="351" y="651"/>
      <point x="340" y="659"/>
    </contour>
    <contour>
      <point x="484" y="453" type="curve" smooth="yes"/>
      <point x="484" y="470"/>
      <point x="472" y="480"/>
      <point x="448" y="480" type="curve" smooth="yes"/>
      <point x="425" y="480"/>
      <point x="378" y="470"/>
      <point x="345" y="464" type="curve" smooth="yes"/>
      <point x="281" y="455" type="line"/>
      <point x="276" y="432" type="line"/>
      <point x="336" y="423" type="line" smooth="yes"/>
      <point x="367" y="417"/>
      <point x="411" y="408"/>
      <point x="434" y="408" type="curve" smooth="yes"/>
      <point x="466" y="408"/>
      <point x="484" y="425"/>
    </contour>
  </outline>
</glyph>
<glyph name="uni2027" format="2">
  <advance width="276"/>
  <unicode hex="2027"/>
  <outline>
    <contour>
      <point x="130" y="162" type="curve" smooth="yes"/>
      <point x="167" y="162"/>
      <point x="197" y="191"/>
      <point x="197" y="229" type="curve" smooth="yes"/>
      <point x="197" y="258"/>
      <point x="175" y="284"/>
      <point x="142" y="284" type="curve" smooth="yes"/>
      <point x="105" y="284"/>
      <point x="73" y="255"/>
      <point x="73" y="218" type="curve" smooth="yes"/>
      <point x="73" y="186"/>
      <point x="98" y="162"/>
    </contour>
  </outline>
</glyph>
<glyph name="guilsinglleft" format="2">
  <advance width="324"/>
  <unicode hex="2039"/>
  <outline>
    <contour>
      <point x="232" y="44" type="line"/>
      <point x="260" y="69" type="line"/>
      <point x="124" y="252" type="line"/>
      <point x="116" y="212" type="line"/>
      <point x="308" y="391" type="line"/>
      <point x="287" y="420" type="line"/>
      <point x="76" y="257" type="line"/>
      <point x="67" y="207" type="line"/>
    </contour>
  </outline>
</glyph>
<glyph name="fraction" format="2">
  <advance width="83"/>
  <unicode hex="2044"/>
  <outline>
    <contour>
      <point x="-140" y="-14" type="line"/>
      <point x="314" y="586" type="line"/>
      <point x="283" y="610" type="line"/>
      <point x="-172" y="10" type="line"/>
    </contour>
  </outline>
</glyph>
<glyph name="Euro" format="2">
  <advance width="473"/>
  <unicode hex="20AC"/>
  <outline>
    <contour>
      <point x="17" y="214" type="line"/>
      <point x="361" y="214" type="line"/>
      <point x="371" y="261" type="line"/>
      <point x="27" y="261" type="line"/>
    </contour>
    <contour>
      <point x="42" y="336" type="line"/>
      <point x="386" y="336" type="line"/>
      <point x="395" y="383" type="line"/>
      <point x="51" y="383" type="line"/>
    </contour>
    <contour>
      <point x="281" y="-13" type="curve" smooth="yes"/>
      <point x="360" y="-13"/>
      <point x="434" y="30"/>
      <point x="448" y="111" type="curve"/>
      <point x="440" y="133"/>
      <point x="426" y="142"/>
      <point x="409" y="142" type="curve" smooth="yes"/>
      <point x="382" y="142"/>
      <point x="369" y="128"/>
      <point x="350" y="88" type="curve" smooth="yes"/>
      <point x="314" y="12" type="line"/>
      <point x="344" y="33" type="line"/>
      <point x="326" y="29"/>
      <point x="310" y="27"/>
      <point x="296" y="27" type="curve" smooth="yes"/>
      <point x="208" y="27"/>
      <point x="156" y="91"/>
      <point x="156" y="218" type="curve" smooth="yes"/>
      <point x="156" y="410"/>
      <point x="258" y="561"/>
      <point x="377" y="561" type="curve" smooth="yes"/>
      <point x="398" y="561"/>
      <point x="421" y="557"/>
      <point x="447" y="546" type="curve"/>
      <point x="421" y="567" type="line"/>
      <point x="426" y="492" type="line" smooth="yes"/>
      <point x="429" y="444"/>
      <point x="439" y="430"/>
      <point x="471" y="430" type="curve" smooth="yes"/>
      <point x="489" y="430"/>
      <point x="507" y="443"/>
      <point x="514" y="470" type="curve"/>
      <point x="508" y="555"/>
      <point x="453" y="603"/>
      <point x="374" y="603" type="curve" smooth="yes"/>
      <point x="214" y="603"/>
      <point x="78" y="445"/>
      <point x="78" y="226" type="curve" smooth="yes"/>
      <point x="78" y="86"/>
      <point x="144" y="-13"/>
    </contour>
  </outline>
</glyph>
<glyph name="Omega" format="2">
  <advance width="650"/>
  <unicode hex="2126"/>
  <outline>
    <contour>
      <point x="55" y="0" type="line"/>
      <point x="269" y="0" type="line"/>
      <point x="288" y="115" type="line"/>
      <point x="223" y="138"/>
      <point x="186" y="206"/>
      <point x="186" y="304" type="curve" smooth="yes"/>
      <point x="186" y="471"/>
      <point x="269" y="582"/>
      <point x="392" y="582" type="curve" smooth="yes"/>
      <point x="478" y="582"/>
      <point x="533" y="513"/>
      <point x="533" y="403" type="curve" smooth="yes"/>
      <point x="533" y="258"/>
      <point x="469" y="144"/>
      <point x="366" y="112" type="curve"/>
      <point x="350" y="0" type="line"/>
      <point x="575" y="0" type="line"/>
      <point x="618" y="158" type="line"/>
      <point x="565" y="158" type="line"/>
      <point x="503" y="20" type="line"/>
      <point x="543" y="69" type="line"/>
      <point x="371" y="69" type="line"/>
      <point x="397" y="21" type="line"/>
      <point x="407" y="84" type="line"/>
      <point x="538" y="133"/>
      <point x="623" y="260"/>
      <point x="623" y="399" type="curve" smooth="yes"/>
      <point x="623" y="535"/>
      <point x="529" y="629"/>
      <point x="391" y="629" type="curve" smooth="yes"/>
      <point x="222" y="629"/>
      <point x="98" y="497"/>
      <point x="98" y="318" type="curve" smooth="yes"/>
      <point x="98" y="213"/>
      <point x="153" y="124"/>
      <point x="239" y="87" type="curve"/>
      <point x="229" y="22" type="line"/>
      <point x="259" y="69" type="line"/>
      <point x="90" y="69" type="line"/>
      <point x="124" y="20" type="line"/>
      <point x="97" y="158" type="line"/>
      <point x="49" y="158" type="line"/>
    </contour>
  </outline>
</glyph>
<glyph name="partialdiff" format="2">
  <advance width="490"/>
  <unicode hex="2202"/>
  <outline>
    <contour>
      <point x="201" y="-11" type="curve" smooth="yes"/>
      <point x="351" y="-11"/>
      <point x="455" y="146"/>
      <point x="455" y="364" type="curve" smooth="yes"/>
      <point x="455" y="521"/>
      <point x="356" y="605"/>
      <point x="257" y="605" type="curve" smooth="yes"/>
      <point x="205" y="605"/>
      <point x="165" y="591"/>
      <point x="128" y="571" type="curve"/>
      <point x="137" y="540" type="line"/>
      <point x="173" y="555"/>
      <point x="194" y="562"/>
      <point x="225" y="562" type="curve" smooth="yes"/>
      <point x="309" y="562"/>
      <point x="373" y="507"/>
      <point x="373" y="352" type="curve" smooth="yes"/>
      <point x="373" y="139"/>
      <point x="292" y="26"/>
      <point x="216" y="26" type="curve" smooth="yes"/>
      <point x="171" y="26"/>
      <point x="132" y="70"/>
      <point x="132" y="148" type="curve" smooth="yes"/>
      <point x="132" y="264"/>
      <point x="201" y="331"/>
      <point x="270" y="331" type="curve" smooth="yes"/>
      <point x="313" y="331"/>
      <point x="350" y="314"/>
      <point x="384" y="281" type="curve"/>
      <point x="392" y="307" type="line"/>
      <point x="367" y="351"/>
      <point x="321" y="374"/>
      <point x="263" y="374" type="curve" smooth="yes"/>
      <point x="144" y="374"/>
      <point x="50" y="276"/>
      <point x="50" y="147" type="curve" smooth="yes"/>
      <point x="50" y="44"/>
      <point x="117" y="-11"/>
    </contour>
  </outline>
</glyph>
<glyph name="product" format="2">
  <advance width="721"/>
  <unicode hex="220F"/>
  <outline>
    <contour>
      <point x="588" y="566" type="line"/>
      <point x="588" y="614" type="line"/>
      <point x="204" y="614" type="line"/>
      <point x="204" y="566" type="line"/>
    </contour>
    <contour>
      <point x="193" y="-66" type="line"/>
      <point x="72" y="-80" type="line"/>
      <point x="72" y="-118" type="line"/>
      <point x="334" y="-118" type="line"/>
      <point x="334" y="-80" type="line"/>
      <point x="213" y="-66" type="line"/>
    </contour>
    <contour>
      <point x="161" y="166" type="line" smooth="yes"/>
      <point x="161" y="69"/>
      <point x="161" y="-25"/>
      <point x="158" y="-118" type="curve"/>
      <point x="249" y="-118" type="line"/>
      <point x="246" y="-23"/>
      <point x="246" y="71"/>
      <point x="246" y="166" type="curve" smooth="yes"/>
      <point x="246" y="329" type="line" smooth="yes"/>
      <point x="246" y="425"/>
      <point x="246" y="521"/>
      <point x="249" y="614" type="curve"/>
      <point x="158" y="614" type="line"/>
      <point x="161" y="519"/>
      <point x="161" y="424"/>
      <point x="161" y="329" type="curve" smooth="yes"/>
    </contour>
    <contour>
      <point x="580" y="562" type="line"/>
      <point x="590" y="562" type="line"/>
      <point x="712" y="575" type="line"/>
      <point x="712" y="614" type="line"/>
      <point x="580" y="614" type="line"/>
    </contour>
    <contour>
      <point x="538" y="166" type="line" smooth="yes"/>
      <point x="538" y="69"/>
      <point x="538" y="-25"/>
      <point x="535" y="-118" type="curve"/>
      <point x="626" y="-118" type="line"/>
      <point x="623" y="-23"/>
      <point x="623" y="71"/>
      <point x="623" y="166" type="curve" smooth="yes"/>
      <point x="623" y="329" type="line" smooth="yes"/>
      <point x="623" y="425"/>
      <point x="623" y="521"/>
      <point x="626" y="614" type="curve"/>
      <point x="535" y="614" type="line"/>
      <point x="538" y="519"/>
      <point x="538" y="424"/>
      <point x="538" y="329" type="curve" smooth="yes"/>
    </contour>
    <contour>
      <point x="571" y="-66" type="line"/>
      <point x="449" y="-80" type="line"/>
      <point x="449" y="-118" type="line"/>
      <point x="712" y="-118" type="line"/>
      <point x="712" y="-80" type="line"/>
      <point x="590" y="-66" type="line"/>
    </contour>
    <contour>
      <point x="193" y="562" type="line"/>
      <point x="204" y="562" type="line"/>
      <point x="204" y="614" type="line"/>
      <point x="72" y="614" type="line"/>
      <point x="72" y="575" type="line"/>
    </contour>
  </outline>
</glyph>
<glyph name="summation" format="2">
  <advance width="545"/>
  <unicode hex="2211"/>
  <outline>
    <contour>
      <point x="464" y="449" type="line"/>
      <point x="521" y="449" type="line"/>
      <point x="514" y="614" type="line"/>
      <point x="114" y="614" type="line"/>
      <point x="114" y="567" type="line"/>
      <point x="482" y="567" type="line"/>
      <point x="429" y="614" type="line"/>
    </contour>
    <contour>
      <point x="57" y="-118" type="line"/>
      <point x="533" y="-118" type="line"/>
      <point x="540" y="77" type="line"/>
      <point x="483" y="77" type="line"/>
      <point x="448" y="-87" type="line"/>
      <point x="501" y="-46" type="line"/>
      <point x="104" y="-46" type="line"/>
      <point x="118" y="-63" type="line"/>
      <point x="363" y="258" type="line"/>
      <point x="146" y="614" type="line"/>
      <point x="69" y="614" type="line"/>
      <point x="69" y="572" type="line"/>
      <point x="299" y="209" type="line"/>
      <point x="300" y="262" type="line"/>
      <point x="57" y="-60" type="line"/>
    </contour>
  </outline>
</glyph>
<glyph name="notequal" format="2">
  <advance width="489"/>
  <unicode hex="2260"/>
  <outline>
    <contour>
      <point x="134" y="51" type="line"/>
      <point x="408" y="537" type="line"/>
      <point x="377" y="553" type="line"/>
      <point x="102" y="67" type="line"/>
    </contour>
    <contour>
      <point x="464" y="184" type="line"/>
      <point x="464" y="235" type="line"/>
      <point x="54" y="235" type="line"/>
      <point x="54" y="184" type="line"/>
    </contour>
    <contour>
      <point x="464" y="369" type="line"/>
      <point x="464" y="421" type="line"/>
      <point x="54" y="421" type="line"/>
      <point x="54" y="369" type="line"/>
    </contour>
  </outline>
</glyph>
<glyph name="lessequal" format="2">
  <advance width="489"/>
  <unicode hex="2264"/>
  <outline>
    <contour>
      <point x="455" y="0" type="line"/>
      <point x="455" y="51" type="line"/>
      <point x="46" y="51" type="line"/>
      <point x="46" y="0" type="line"/>
    </contour>
    <contour>
      <point x="68" y="275" type="line"/>
      <point x="413" y="99" type="line"/>
      <point x="440" y="147" type="line"/>
      <point x="118" y="306" type="line"/>
      <point x="118" y="287" type="line"/>
      <point x="440" y="446" type="line"/>
      <point x="413" y="494" type="line"/>
      <point x="68" y="318" type="line"/>
    </contour>
  </outline>
</glyph>
<glyph name="lozenge" format="2">
  <advance width="537"/>
  <unicode hex="25CA"/>
  <outline>
    <contour>
      <point x="436" y="299" type="line"/>
      <point x="295" y="26" type="line"/>
      <point x="153" y="299" type="line"/>
      <point x="295" y="567" type="line"/>
    </contour>
    <contour>
      <point x="493" y="299" type="line"/>
      <point x="302" y="646" type="line"/>
      <point x="287" y="646" type="line"/>
      <point x="97" y="299" type="line"/>
      <point x="287" y="-52" type="line"/>
      <point x="302" y="-52" type="line"/>
    </contour>
  </outline>
</glyph>
<glyph name="uniA4D1" format="2">
  <advance width="492"/>
  <unicode hex="A4D1"/>
  <outline>
    <contour>
      <point x="248" y="206" type="curve" smooth="yes"/>
      <point x="390" y="206"/>
      <point x="505" y="266"/>
      <point x="505" y="389" type="curve" smooth="yes"/>
      <point x="505" y="474"/>
      <point x="428" y="538"/>
      <point x="284" y="538" type="curve" smooth="yes"/>
      <point x="218" y="538"/>
      <point x="160" y="520"/>
      <point x="123" y="500" type="curve" smooth="yes"/>
      <point x="111" y="493"/>
      <point x="104" y="488"/>
      <point x="104" y="477" type="curve" smooth="yes"/>
      <point x="104" y="466"/>
      <point x="107" y="454"/>
      <point x="113" y="445" type="curve" smooth="yes"/>
      <point x="117" y="439"/>
      <point x="124" y="434"/>
      <point x="130" y="434" type="curve" smooth="yes"/>
      <point x="135" y="434"/>
      <point x="141" y="435"/>
      <point x="147" y="438" type="curve" smooth="yes"/>
      <point x="165" y="447"/>
      <point x="219" y="473"/>
      <point x="268" y="473" type="curve" smooth="yes"/>
      <point x="378" y="473"/>
      <point x="430" y="441"/>
      <point x="430" y="381" type="curve" smooth="yes"/>
      <point x="430" y="310"/>
      <point x="352" y="271"/>
      <point x="255" y="271" type="curve" smooth="yes"/>
      <point x="229" y="271"/>
      <point x="185" y="273"/>
      <point x="161" y="277" type="curve"/>
      <point x="139" y="220" type="line"/>
      <point x="167" y="212"/>
      <point x="224" y="206"/>
    </contour>
    <contour>
      <point x="245" y="366" type="curve" smooth="yes"/>
      <point x="261" y="409"/>
      <point x="260" y="405"/>
      <point x="273" y="440" type="curve" smooth="yes"/>
      <point x="278" y="453"/>
      <point x="279" y="459"/>
      <point x="279" y="465" type="curve" smooth="yes"/>
      <point x="279" y="474"/>
      <point x="263" y="485"/>
      <point x="239" y="485" type="curve" smooth="yes"/>
      <point x="218" y="485"/>
      <point x="211" y="482"/>
      <point x="205" y="475" type="curve" smooth="yes"/>
      <point x="201" y="471"/>
      <point x="198" y="463"/>
      <point x="196" y="456" type="curve" smooth="yes"/>
      <point x="188" y="433"/>
      <point x="186" y="427"/>
      <point x="178" y="403" type="curve" smooth="yes"/>
      <point x="148" y="313"/>
      <point x="119" y="229"/>
      <point x="87" y="140" type="curve" smooth="yes"/>
      <point x="74" y="104"/>
      <point x="60" y="68"/>
      <point x="47" y="30" type="curve" smooth="yes"/>
      <point x="45" y="24"/>
      <point x="43" y="18"/>
      <point x="43" y="11" type="curve" smooth="yes"/>
      <point x="43" y="3"/>
      <point x="50" y="-9"/>
      <point x="82" y="-9" type="curve" smooth="yes"/>
      <point x="114" y="-9"/>
      <point x="125" y="0"/>
      <point x="130" y="17" type="curve" smooth="yes"/>
      <point x="135" y="33"/>
      <point x="144" y="66"/>
      <point x="156" y="104" type="curve" smooth="yes"/>
      <point x="179" y="177"/>
      <point x="209" y="270"/>
    </contour>
  </outline>
</glyph>
<glyph name="uniA4D3" format="2">
  <advance width="546"/>
  <unicode hex="A4D3"/>
  <outline>
    <contour>
      <point x="186" y="-10" type="curve" smooth="yes"/>
      <point x="394" y="-10"/>
      <point x="525" y="140"/>
      <point x="525" y="331" type="curve" smooth="yes"/>
      <point x="525" y="462"/>
      <point x="415" y="538"/>
      <point x="284" y="538" type="curve" smooth="yes"/>
      <point x="218" y="538"/>
      <point x="160" y="520"/>
      <point x="123" y="500" type="curve" smooth="yes"/>
      <point x="111" y="493"/>
      <point x="104" y="488"/>
      <point x="104" y="477" type="curve" smooth="yes"/>
      <point x="104" y="466"/>
      <point x="107" y="454"/>
      <point x="113" y="445" type="curve" smooth="yes"/>
      <point x="117" y="439"/>
      <point x="124" y="434"/>
      <point x="130" y="434" type="curve" smooth="yes"/>
      <point x="135" y="434"/>
      <point x="141" y="435"/>
      <point x="147" y="438" type="curve" smooth="yes"/>
      <point x="165" y="447"/>
      <point x="219" y="473"/>
      <point x="268" y="473" type="curve" smooth="yes"/>
      <point x="373" y="473"/>
      <point x="450" y="432"/>
      <point x="450" y="322" type="curve" smooth="yes"/>
      <point x="450" y="173"/>
      <point x="351" y="55"/>
      <point x="195" y="55" type="curve" smooth="yes"/>
      <point x="146" y="55"/>
      <point x="88" y="61"/>
      <point x="38" y="75" type="curve" smooth="yes"/>
      <point x="29" y="77"/>
      <point x="23" y="78"/>
      <point x="17" y="78" type="curve" smooth="yes"/>
      <point x="11" y="78"/>
      <point x="3" y="70"/>
      <point x="-1" y="64" type="curve" smooth="yes"/>
      <point x="-7" y="56"/>
      <point x="-12" y="46"/>
      <point x="-12" y="32" type="curve" smooth="yes"/>
      <point x="-12" y="21"/>
      <point x="-8" y="16"/>
      <point x="6" y="12" type="curve" smooth="yes"/>
      <point x="59" y="-3"/>
      <point x="121" y="-10"/>
    </contour>
    <contour>
      <point x="96" y="22" type="curve" smooth="yes"/>
      <point x="121" y="22"/>
      <point x="132" y="30"/>
      <point x="138" y="47" type="curve" smooth="yes"/>
      <point x="144" y="63"/>
      <point x="148" y="79"/>
      <point x="156" y="104" type="curve" smooth="yes"/>
      <point x="179" y="177"/>
      <point x="209" y="270"/>
      <point x="245" y="366" type="curve" smooth="yes"/>
      <point x="261" y="409"/>
      <point x="261" y="408"/>
      <point x="273" y="440" type="curve" smooth="yes"/>
      <point x="278" y="453"/>
      <point x="279" y="459"/>
      <point x="279" y="465" type="curve" smooth="yes"/>
      <point x="279" y="474"/>
      <point x="263" y="485"/>
      <point x="239" y="485" type="curve" smooth="yes"/>
      <point x="218" y="485"/>
      <point x="211" y="482"/>
      <point x="205" y="475" type="curve" smooth="yes"/>
      <point x="201" y="471"/>
      <point x="198" y="463"/>
      <point x="196" y="456" type="curve" smooth="yes"/>
      <point x="188" y="433"/>
      <point x="186" y="427"/>
      <point x="178" y="403" type="curve" smooth="yes"/>
      <point x="148" y="313"/>
      <point x="119" y="229"/>
      <point x="87" y="140" type="curve" smooth="yes"/>
      <point x="74" y="104"/>
      <point x="69" y="89"/>
      <point x="59" y="61" type="curve" smooth="yes"/>
      <point x="57" y="56"/>
      <point x="56" y="49"/>
      <point x="56" y="42" type="curve" smooth="yes"/>
      <point x="56" y="35"/>
      <point x="63" y="22"/>
    </contour>
  </outline>
</glyph>
<glyph name="uniA4DD" format="2">
  <advance width="468"/>
  <unicode hex="A4DD"/>
  <outline>
    <contour>
      <point x="71" y="-9" type="curve" smooth="yes"/>
      <point x="103" y="-9"/>
      <point x="114" y="0"/>
      <point x="119" y="17" type="curve" smooth="yes"/>
      <point x="124" y="33"/>
      <point x="133" y="66"/>
      <point x="145" y="104" type="curve" smooth="yes"/>
      <point x="168" y="177"/>
      <point x="197" y="266"/>
      <point x="232" y="362" type="curve" smooth="yes"/>
      <point x="248" y="405"/>
      <point x="265" y="450"/>
      <point x="281" y="493" type="curve" smooth="yes"/>
      <point x="283" y="499"/>
      <point x="283" y="502"/>
      <point x="283" y="506" type="curve" smooth="yes"/>
      <point x="283" y="517"/>
      <point x="268" y="528"/>
      <point x="242" y="528" type="curve" smooth="yes"/>
      <point x="221" y="528"/>
      <point x="211" y="525"/>
      <point x="206" y="518" type="curve" smooth="yes"/>
      <point x="202" y="513"/>
      <point x="198" y="505"/>
      <point x="196" y="500" type="curve" smooth="yes"/>
      <point x="184" y="467"/>
      <point x="176" y="432"/>
      <point x="165" y="399" type="curve" smooth="yes"/>
      <point x="135" y="309"/>
      <point x="108" y="228"/>
      <point x="76" y="140" type="curve" smooth="yes"/>
      <point x="63" y="104"/>
      <point x="48" y="68"/>
      <point x="35" y="30" type="curve" smooth="yes"/>
      <point x="33" y="24"/>
      <point x="31" y="18"/>
      <point x="31" y="11" type="curve" smooth="yes"/>
      <point x="31" y="3"/>
      <point x="39" y="-9"/>
    </contour>
    <contour>
      <point x="402" y="269" type="curve" smooth="yes"/>
      <point x="395" y="282"/>
      <point x="386" y="287"/>
      <point x="356" y="287" type="curve" smooth="yes"/>
      <point x="319" y="287"/>
      <point x="279" y="286"/>
      <point x="245" y="286" type="curve" smooth="yes"/>
      <point x="200" y="286"/>
      <point x="168" y="288"/>
      <point x="125" y="288" type="curve" smooth="yes"/>
      <point x="96" y="288"/>
      <point x="79" y="280"/>
      <point x="79" y="260" type="curve" smooth="yes"/>
      <point x="79" y="236"/>
      <point x="91" y="227"/>
      <point x="98" y="224" type="curve" smooth="yes"/>
      <point x="104" y="221"/>
      <point x="121" y="217"/>
      <point x="140" y="217" type="curve" smooth="yes"/>
      <point x="166" y="217"/>
      <point x="195" y="218"/>
      <point x="230" y="218" type="curve" smooth="yes"/>
      <point x="287" y="218"/>
      <point x="328" y="217"/>
      <point x="348" y="217" type="curve" smooth="yes"/>
      <point x="380" y="217"/>
      <point x="395" y="219"/>
      <point x="402" y="230" type="curve" smooth="yes"/>
      <point x="406" y="236"/>
      <point x="407" y="242"/>
      <point x="407" y="250" type="curve" smooth="yes"/>
      <point x="407" y="258"/>
      <point x="405" y="263"/>
    </contour>
    <contour>
      <point x="219" y="529" type="curve" smooth="yes"/>
      <point x="182" y="529"/>
      <point x="179" y="531"/>
      <point x="141" y="531" type="curve" smooth="yes"/>
      <point x="131" y="531"/>
      <point x="121" y="525"/>
      <point x="121" y="511" type="curve" smooth="yes"/>
      <point x="121" y="495"/>
      <point x="125" y="487"/>
      <point x="131" y="479" type="curve" smooth="yes"/>
      <point x="137" y="471"/>
      <point x="145" y="466"/>
      <point x="160" y="464" type="curve" smooth="yes"/>
      <point x="186" y="461"/>
      <point x="195" y="461"/>
      <point x="235" y="461" type="curve" smooth="yes"/>
      <point x="278" y="461"/>
      <point x="412" y="462"/>
      <point x="439" y="462" type="curve" smooth="yes"/>
      <point x="455" y="462"/>
      <point x="472" y="461"/>
      <point x="487" y="461" type="curve" smooth="yes"/>
      <point x="499" y="461"/>
      <point x="509" y="462"/>
      <point x="515" y="466" type="curve" smooth="yes"/>
      <point x="521" y="470"/>
      <point x="525" y="479"/>
      <point x="525" y="488" type="curve" smooth="yes"/>
      <point x="525" y="518"/>
      <point x="493" y="532"/>
      <point x="456" y="532" type="curve" smooth="yes"/>
      <point x="394" y="532"/>
      <point x="283" y="529"/>
    </contour>
  </outline>
</glyph>
<glyph name="uniA4E3" format="2">
  <advance width="513"/>
  <unicode hex="A4E3"/>
  <guideline x="469" y="299" angle="71"/>
  <outline>
    <contour>
      <point x="386" y="-9" type="curve" smooth="yes"/>
      <point x="411" y="-9"/>
      <point x="427" y="-2"/>
      <point x="427" y="9" type="curve" smooth="yes"/>
      <point x="427" y="18"/>
      <point x="425" y="32"/>
      <point x="415" y="59" type="curve" smooth="yes"/>
      <point x="388" y="131"/>
      <point x="335" y="229"/>
      <point x="285" y="284" type="curve"/>
      <point x="222" y="248" type="line"/>
      <point x="275" y="188"/>
      <point x="307" y="122"/>
      <point x="334" y="51" type="curve" smooth="yes"/>
      <point x="343" y="27"/>
      <point x="343" y="9"/>
      <point x="351" y="0" type="curve" smooth="yes"/>
      <point x="357" y="-7"/>
      <point x="369" y="-9"/>
    </contour>
    <contour>
      <point x="82" y="-9" type="curve" smooth="yes"/>
      <point x="114" y="-9"/>
      <point x="125" y="0"/>
      <point x="130" y="17" type="curve" smooth="yes"/>
      <point x="135" y="33"/>
      <point x="144" y="66"/>
      <point x="156" y="104" type="curve" smooth="yes"/>
      <point x="179" y="177"/>
      <point x="209" y="270"/>
      <point x="245" y="366" type="curve" smooth="yes"/>
      <point x="261" y="409"/>
      <point x="261" y="408"/>
      <point x="273" y="440" type="curve" smooth="yes"/>
      <point x="278" y="453"/>
      <point x="279" y="459"/>
      <point x="279" y="465" type="curve" smooth="yes"/>
      <point x="279" y="474"/>
      <point x="263" y="485"/>
      <point x="239" y="485" type="curve" smooth="yes"/>
      <point x="218" y="485"/>
      <point x="211" y="482"/>
      <point x="205" y="475" type="curve" smooth="yes"/>
      <point x="201" y="471"/>
      <point x="198" y="463"/>
      <point x="196" y="456" type="curve" smooth="yes"/>
      <point x="188" y="433"/>
      <point x="186" y="427"/>
      <point x="178" y="403" type="curve" smooth="yes"/>
      <point x="148" y="313"/>
      <point x="119" y="229"/>
      <point x="87" y="140" type="curve" smooth="yes"/>
      <point x="74" y="104"/>
      <point x="60" y="68"/>
      <point x="47" y="30" type="curve" smooth="yes"/>
      <point x="45" y="24"/>
      <point x="43" y="18"/>
      <point x="43" y="11" type="curve" smooth="yes"/>
      <point x="43" y="3"/>
      <point x="50" y="-9"/>
    </contour>
    <contour>
      <point x="155" y="232" type="line"/>
      <point x="192" y="227"/>
      <point x="211" y="226"/>
      <point x="249" y="226" type="curve" smooth="yes"/>
      <point x="398" y="226"/>
      <point x="494" y="292"/>
      <point x="494" y="401" type="curve" smooth="yes"/>
      <point x="494" y="481"/>
      <point x="420" y="538"/>
      <point x="284" y="538" type="curve" smooth="yes"/>
      <point x="212" y="538"/>
      <point x="156" y="518"/>
      <point x="123" y="500" type="curve" smooth="yes"/>
      <point x="111" y="493"/>
      <point x="104" y="488"/>
      <point x="104" y="477" type="curve" smooth="yes"/>
      <point x="104" y="466"/>
      <point x="107" y="454"/>
      <point x="113" y="445" type="curve" smooth="yes"/>
      <point x="116" y="440"/>
      <point x="124" y="434"/>
      <point x="130" y="434" type="curve" smooth="yes"/>
      <point x="135" y="434"/>
      <point x="141" y="435"/>
      <point x="147" y="438" type="curve" smooth="yes"/>
      <point x="168" y="450"/>
      <point x="213" y="473"/>
      <point x="268" y="473" type="curve" smooth="yes"/>
      <point x="370" y="473"/>
      <point x="419" y="442"/>
      <point x="419" y="395" type="curve" smooth="yes"/>
      <point x="419" y="328"/>
      <point x="347" y="292"/>
      <point x="262" y="292" type="curve" smooth="yes"/>
      <point x="234" y="292"/>
      <point x="210" y="293"/>
      <point x="177" y="295" type="curve"/>
    </contour>
  </outline>
</glyph>
<glyph name="uniA4E6" format="2">
  <advance width="528"/>
  <unicode hex="A4E6"/>
  <outline>
    <contour>
      <point x="463" y="449" type="curve" smooth="yes"/>
      <point x="414" y="354"/>
      <point x="319" y="214"/>
      <point x="278" y="159" type="curve" smooth="yes"/>
      <point x="245" y="114"/>
      <point x="229" y="95"/>
      <point x="220" y="95" type="curve" smooth="yes"/>
      <point x="213" y="95"/>
      <point x="206" y="117"/>
      <point x="206" y="154" type="curve" smooth="yes"/>
      <point x="206" y="243"/>
      <point x="210" y="404"/>
      <point x="212" y="463" type="curve" smooth="yes"/>
      <point x="213" y="492"/>
      <point x="213" y="499"/>
      <point x="213" y="504" type="curve" smooth="yes"/>
      <point x="213" y="523"/>
      <point x="202" y="532"/>
      <point x="177" y="532" type="curve" smooth="yes"/>
      <point x="145" y="532"/>
      <point x="135" y="522"/>
      <point x="134" y="482" type="curve" smooth="yes"/>
      <point x="132" y="398"/>
      <point x="131" y="330"/>
      <point x="131" y="269" type="curve" smooth="yes"/>
      <point x="131" y="217"/>
      <point x="131" y="174"/>
      <point x="132" y="138" type="curve" smooth="yes"/>
      <point x="135" y="24"/>
      <point x="154" y="-10"/>
      <point x="183" y="-10" type="curve" smooth="yes"/>
      <point x="227" y="-10"/>
      <point x="278" y="41"/>
      <point x="341" y="125" type="curve" smooth="yes"/>
      <point x="399" y="202"/>
      <point x="470" y="306"/>
      <point x="553" y="451" type="curve" smooth="yes"/>
      <point x="568" y="477"/>
      <point x="581" y="501"/>
      <point x="581" y="511" type="curve" smooth="yes"/>
      <point x="581" y="523"/>
      <point x="576" y="532"/>
      <point x="546" y="532" type="curve" smooth="yes"/>
      <point x="522" y="532"/>
      <point x="507" y="528"/>
      <point x="494" y="506" type="curve" smooth="yes"/>
      <point x="487" y="494"/>
      <point x="477" y="476"/>
    </contour>
  </outline>
</glyph>
<glyph name="uniA4E8" format="2">
  <advance width="526"/>
  <unicode hex="A4E8"/>
  <outline>
    <contour>
      <point x="231" y="63" type="curve" smooth="yes"/>
      <point x="189" y="63"/>
      <point x="162" y="95"/>
      <point x="147" y="127" type="curve" smooth="yes"/>
      <point x="132" y="159"/>
      <point x="127" y="164"/>
      <point x="116" y="164" type="curve" smooth="yes"/>
      <point x="105" y="164"/>
      <point x="69" y="147"/>
      <point x="69" y="126" type="curve" smooth="yes"/>
      <point x="69" y="94"/>
      <point x="92" y="53"/>
      <point x="118" y="29" type="curve" smooth="yes"/>
      <point x="141" y="7"/>
      <point x="179" y="-10"/>
      <point x="221" y="-10" type="curve" smooth="yes"/>
      <point x="391" y="-10"/>
      <point x="508" y="200"/>
      <point x="508" y="368" type="curve" smooth="yes"/>
      <point x="508" y="468"/>
      <point x="446" y="538"/>
      <point x="341" y="538" type="curve" smooth="yes"/>
      <point x="234" y="538"/>
      <point x="151" y="444"/>
      <point x="130" y="368" type="curve" smooth="yes"/>
      <point x="127" y="357"/>
      <point x="126" y="351"/>
      <point x="126" y="344" type="curve" smooth="yes"/>
      <point x="126" y="321"/>
      <point x="146" y="314"/>
      <point x="168" y="314" type="curve" smooth="yes"/>
      <point x="181" y="314"/>
      <point x="188" y="318"/>
      <point x="194" y="330" type="curve" smooth="yes"/>
      <point x="197" y="336"/>
      <point x="201" y="353"/>
      <point x="207" y="370" type="curve" smooth="yes"/>
      <point x="224" y="419"/>
      <point x="275" y="465"/>
      <point x="333" y="465" type="curve" smooth="yes"/>
      <point x="394" y="465"/>
      <point x="433" y="425"/>
      <point x="433" y="357" type="curve" smooth="yes"/>
      <point x="433" y="222"/>
      <point x="333" y="63"/>
    </contour>
    <contour>
      <point x="66" y="336" type="curve" smooth="yes"/>
      <point x="62" y="327"/>
      <point x="61" y="317"/>
      <point x="61" y="311" type="curve" smooth="yes"/>
      <point x="61" y="299"/>
      <point x="68" y="293"/>
      <point x="73" y="292" type="curve" smooth="yes"/>
      <point x="80" y="291"/>
      <point x="88" y="290"/>
      <point x="92" y="290" type="curve" smooth="yes"/>
      <point x="118" y="290"/>
      <point x="132" y="291"/>
      <point x="175" y="291" type="curve" smooth="yes"/>
      <point x="194" y="291"/>
      <point x="214" y="290"/>
      <point x="240" y="290" type="curve" smooth="yes"/>
      <point x="245" y="290"/>
      <point x="263" y="290"/>
      <point x="269" y="293" type="curve" smooth="yes"/>
      <point x="276" y="296"/>
      <point x="281" y="303"/>
      <point x="288" y="321" type="curve" smooth="yes"/>
      <point x="290" y="326"/>
      <point x="293" y="337"/>
      <point x="293" y="342" type="curve" smooth="yes"/>
      <point x="293" y="347"/>
      <point x="292" y="351"/>
      <point x="289" y="354" type="curve" smooth="yes"/>
      <point x="284" y="359"/>
      <point x="274" y="362"/>
      <point x="259" y="362" type="curve" smooth="yes"/>
      <point x="223" y="362"/>
      <point x="190" y="359"/>
      <point x="159" y="359" type="curve" smooth="yes"/>
      <point x="142" y="359"/>
      <point x="135" y="361"/>
      <point x="105" y="361" type="curve" smooth="yes"/>
      <point x="86" y="361"/>
      <point x="76" y="358"/>
    </contour>
  </outline>
</glyph>
<glyph name="uniA4E9" format="2">
  <advance width="466"/>
  <unicode hex="A4E9"/>
  <outline>
    <contour>
      <point x="96" y="236" type="curve" smooth="yes"/>
      <point x="51" y="111"/>
      <point x="37" y="69"/>
      <point x="27" y="36" type="curve" smooth="yes"/>
      <point x="24" y="25"/>
      <point x="23" y="19"/>
      <point x="23" y="12" type="curve" smooth="yes"/>
      <point x="23" y="4"/>
      <point x="33" y="-9"/>
      <point x="65" y="-9" type="curve" smooth="yes"/>
      <point x="97" y="-9"/>
      <point x="103" y="0"/>
      <point x="107" y="17" type="curve" smooth="yes"/>
      <point x="111" y="33"/>
      <point x="121" y="70"/>
      <point x="133" y="108" type="curve" smooth="yes"/>
      <point x="162" y="200"/>
      <point x="199" y="302"/>
      <point x="229" y="372" type="curve" smooth="yes"/>
      <point x="255" y="432"/>
      <point x="287" y="465"/>
      <point x="331" y="465" type="curve" smooth="yes"/>
      <point x="375" y="465"/>
      <point x="402" y="439"/>
      <point x="412" y="409" type="curve" smooth="yes"/>
      <point x="418" y="391"/>
      <point x="418" y="373"/>
      <point x="423" y="363" type="curve" smooth="yes"/>
      <point x="426" y="357"/>
      <point x="434" y="354"/>
      <point x="444" y="354" type="curve" smooth="yes"/>
      <point x="467" y="354"/>
      <point x="496" y="370"/>
      <point x="496" y="393" type="curve" smooth="yes"/>
      <point x="496" y="404"/>
      <point x="491" y="423"/>
      <point x="483" y="443" type="curve" smooth="yes"/>
      <point x="463" y="494"/>
      <point x="417" y="538"/>
      <point x="342" y="538" type="curve" smooth="yes"/>
      <point x="274" y="538"/>
      <point x="222" y="507"/>
      <point x="189" y="455" type="curve" smooth="yes"/>
      <point x="159" y="408"/>
      <point x="131" y="333"/>
    </contour>
  </outline>
</glyph>
<glyph name="uniA4EE" format="2">
  <advance width="520"/>
  <unicode hex="A4EE"/>
  <outline>
    <contour>
      <point x="100" y="74" type="curve" smooth="yes"/>
      <point x="149" y="169"/>
      <point x="246" y="311"/>
      <point x="287" y="366" type="curve" smooth="yes"/>
      <point x="320" y="411"/>
      <point x="335" y="430"/>
      <point x="344" y="430" type="curve" smooth="yes"/>
      <point x="351" y="430"/>
      <point x="357" y="408"/>
      <point x="357" y="371" type="curve" smooth="yes"/>
      <point x="357" y="282"/>
      <point x="355" y="119"/>
      <point x="352" y="60" type="curve" smooth="yes"/>
      <point x="351" y="31"/>
      <point x="351" y="24"/>
      <point x="351" y="19" type="curve" smooth="yes"/>
      <point x="351" y="0"/>
      <point x="362" y="-9"/>
      <point x="387" y="-9" type="curve" smooth="yes"/>
      <point x="419" y="-9"/>
      <point x="428" y="1"/>
      <point x="429" y="41" type="curve" smooth="yes"/>
      <point x="432" y="125"/>
      <point x="433" y="199"/>
      <point x="433" y="260" type="curve" smooth="yes"/>
      <point x="433" y="312"/>
      <point x="432" y="351"/>
      <point x="431" y="387" type="curve" smooth="yes"/>
      <point x="428" y="501"/>
      <point x="410" y="534"/>
      <point x="381" y="534" type="curve" smooth="yes"/>
      <point x="337" y="534"/>
      <point x="287" y="484"/>
      <point x="224" y="400" type="curve" smooth="yes"/>
      <point x="166" y="323"/>
      <point x="93" y="216"/>
      <point x="10" y="71" type="curve" smooth="yes"/>
      <point x="-5" y="45"/>
      <point x="-18" y="22"/>
      <point x="-18" y="12" type="curve" smooth="yes"/>
      <point x="-18" y="0"/>
      <point x="-13" y="-9"/>
      <point x="17" y="-9" type="curve" smooth="yes"/>
      <point x="41" y="-9"/>
      <point x="56" y="-5"/>
      <point x="69" y="17" type="curve" smooth="yes"/>
      <point x="76" y="29"/>
      <point x="86" y="47"/>
    </contour>
    <contour>
      <point x="118" y="168" type="curve" smooth="yes"/>
      <point x="118" y="143"/>
      <point x="138" y="129"/>
      <point x="162" y="129" type="curve" smooth="yes"/>
      <point x="202" y="129"/>
      <point x="291" y="129"/>
      <point x="337" y="129" type="curve" smooth="yes"/>
      <point x="374" y="129"/>
      <point x="376" y="126"/>
      <point x="399" y="126" type="curve" smooth="yes"/>
      <point x="443" y="126"/>
      <point x="470" y="140"/>
      <point x="470" y="163" type="curve" smooth="yes"/>
      <point x="470" y="187"/>
      <point x="453" y="198"/>
      <point x="434" y="198" type="curve" smooth="yes"/>
      <point x="378" y="198"/>
      <point x="369" y="197"/>
      <point x="334" y="197" type="curve" smooth="yes"/>
      <point x="275" y="197"/>
      <point x="214" y="194"/>
      <point x="174" y="194" type="curve" smooth="yes"/>
      <point x="145" y="194"/>
      <point x="118" y="190"/>
    </contour>
  </outline>
</glyph>
<glyph name="uniA4EF" format="2">
  <advance width="523"/>
  <unicode hex="A4EF"/>
  <outline>
    <contour>
      <point x="462" y="449" type="curve" smooth="yes"/>
      <point x="413" y="354"/>
      <point x="319" y="214"/>
      <point x="278" y="159" type="curve" smooth="yes"/>
      <point x="245" y="114"/>
      <point x="229" y="95"/>
      <point x="220" y="95" type="curve" smooth="yes"/>
      <point x="208" y="95"/>
      <point x="206" y="142"/>
      <point x="206" y="154" type="curve" smooth="yes"/>
      <point x="206" y="243"/>
      <point x="210" y="404"/>
      <point x="212" y="463" type="curve" smooth="yes"/>
      <point x="213" y="492"/>
      <point x="213" y="499"/>
      <point x="213" y="504" type="curve" smooth="yes"/>
      <point x="213" y="523"/>
      <point x="201" y="532"/>
      <point x="177" y="532" type="curve" smooth="yes"/>
      <point x="147" y="532"/>
      <point x="137" y="522"/>
      <point x="135" y="482" type="curve" smooth="yes"/>
      <point x="131" y="398"/>
      <point x="131" y="330"/>
      <point x="131" y="269" type="curve" smooth="yes"/>
      <point x="131" y="217"/>
      <point x="131" y="174"/>
      <point x="132" y="138" type="curve" smooth="yes"/>
      <point x="135" y="24"/>
      <point x="154" y="-10"/>
      <point x="183" y="-10" type="curve" smooth="yes"/>
      <point x="227" y="-10"/>
      <point x="278" y="41"/>
      <point x="341" y="125" type="curve" smooth="yes"/>
      <point x="399" y="202"/>
      <point x="470" y="307"/>
      <point x="553" y="452" type="curve" smooth="yes"/>
      <point x="568" y="478"/>
      <point x="581" y="501"/>
      <point x="581" y="511" type="curve" smooth="yes"/>
      <point x="581" y="523"/>
      <point x="576" y="532"/>
      <point x="546" y="532" type="curve" smooth="yes"/>
      <point x="521" y="532"/>
      <point x="506" y="528"/>
      <point x="493" y="506" type="curve" smooth="yes"/>
      <point x="486" y="494"/>
      <point x="476" y="476"/>
    </contour>
    <contour>
      <point x="90" y="368" type="curve" smooth="yes"/>
      <point x="90" y="350"/>
      <point x="112" y="344"/>
      <point x="150" y="344" type="curve" smooth="yes"/>
      <point x="190" y="344"/>
      <point x="241" y="345"/>
      <point x="300" y="345" type="curve" smooth="yes"/>
      <point x="335" y="345"/>
      <point x="354" y="346"/>
      <point x="410" y="346" type="curve" smooth="yes"/>
      <point x="426" y="346"/>
      <point x="442" y="358"/>
      <point x="442" y="382" type="curve" smooth="yes"/>
      <point x="442" y="410"/>
      <point x="409" y="415"/>
      <point x="373" y="415" type="curve" smooth="yes"/>
      <point x="350" y="415"/>
      <point x="328" y="413"/>
      <point x="301" y="413" type="curve" smooth="yes"/>
      <point x="256" y="413"/>
      <point x="176" y="408"/>
      <point x="136" y="408" type="curve" smooth="yes"/>
      <point x="108" y="408"/>
      <point x="90" y="393"/>
    </contour>
  </outline>
</glyph>
<glyph name="uniA4F0" format="2">
  <advance width="487"/>
  <unicode hex="A4F0"/>
  <outline>
    <contour>
      <point x="221" y="530" type="curve" smooth="yes"/>
      <point x="194" y="530"/>
      <point x="172" y="530"/>
      <point x="153" y="528" type="curve" smooth="yes"/>
      <point x="143" y="527"/>
      <point x="135" y="523"/>
      <point x="131" y="515" type="curve" smooth="yes"/>
      <point x="128" y="508"/>
      <point x="128" y="504"/>
      <point x="128" y="500" type="curve" smooth="yes"/>
      <point x="128" y="490"/>
      <point x="130" y="483"/>
      <point x="133" y="478" type="curve" smooth="yes"/>
      <point x="137" y="470"/>
      <point x="147" y="463"/>
      <point x="162" y="462" type="curve" smooth="yes"/>
      <point x="188" y="460"/>
      <point x="255" y="460"/>
      <point x="305" y="460" type="curve" smooth="yes"/>
      <point x="365" y="460"/>
      <point x="407" y="461"/>
      <point x="434" y="461" type="curve" smooth="yes"/>
      <point x="450" y="461"/>
      <point x="468" y="460"/>
      <point x="483" y="460" type="curve" smooth="yes"/>
      <point x="495" y="460"/>
      <point x="505" y="461"/>
      <point x="511" y="467" type="curve" smooth="yes"/>
      <point x="517" y="473"/>
      <point x="521" y="478"/>
      <point x="521" y="495" type="curve" smooth="yes"/>
      <point x="521" y="518"/>
      <point x="499" y="532"/>
      <point x="462" y="532" type="curve" smooth="yes"/>
      <point x="400" y="532"/>
      <point x="285" y="530"/>
    </contour>
    <contour>
      <point x="148" y="119" type="curve" smooth="yes"/>
      <point x="173" y="193"/>
      <point x="199" y="267"/>
      <point x="233" y="363" type="curve" smooth="yes"/>
      <point x="248" y="406"/>
      <point x="267" y="451"/>
      <point x="281" y="494" type="curve" smooth="yes"/>
      <point x="283" y="500"/>
      <point x="284" y="503"/>
      <point x="284" y="507" type="curve" smooth="yes"/>
      <point x="284" y="518"/>
      <point x="270" y="529"/>
      <point x="245" y="529" type="curve" smooth="yes"/>
      <point x="223" y="529"/>
      <point x="217" y="525"/>
      <point x="211" y="519" type="curve" smooth="yes"/>
      <point x="207" y="515"/>
      <point x="203" y="506"/>
      <point x="201" y="501" type="curve" smooth="yes"/>
      <point x="188" y="468"/>
      <point x="179" y="433"/>
      <point x="168" y="400" type="curve" smooth="yes"/>
      <point x="138" y="310"/>
      <point x="107" y="229"/>
      <point x="76" y="140" type="curve" smooth="yes"/>
      <point x="69" y="119"/>
      <point x="48" y="54"/>
      <point x="48" y="40" type="curve" smooth="yes"/>
      <point x="48" y="15"/>
      <point x="69" y="2"/>
      <point x="91" y="-2" type="curve" smooth="yes"/>
      <point x="113" y="-6"/>
      <point x="142" y="-6"/>
      <point x="166" y="-6" type="curve" smooth="yes"/>
      <point x="203" y="-6"/>
      <point x="253" y="-4"/>
      <point x="280" y="-4" type="curve" smooth="yes"/>
      <point x="301" y="-4"/>
      <point x="334" y="-5"/>
      <point x="345" y="-5" type="curve" smooth="yes"/>
      <point x="383" y="-5"/>
      <point x="396" y="2"/>
      <point x="396" y="17" type="curve" smooth="yes"/>
      <point x="396" y="24"/>
      <point x="394" y="33"/>
      <point x="391" y="38" type="curve" smooth="yes"/>
      <point x="381" y="54"/>
      <point x="371" y="67"/>
      <point x="324" y="67" type="curve" smooth="yes"/>
      <point x="293" y="67"/>
      <point x="216" y="65"/>
      <point x="176" y="65" type="curve" smooth="yes"/>
      <point x="170" y="65"/>
      <point x="162" y="65"/>
      <point x="152" y="66" type="curve" smooth="yes"/>
      <point x="141" y="67"/>
      <point x="137" y="71"/>
      <point x="137" y="77" type="curve" smooth="yes"/>
      <point x="137" y="84"/>
      <point x="143" y="104"/>
    </contour>
    <contour>
      <point x="413" y="285" type="curve" smooth="yes"/>
      <point x="406" y="298"/>
      <point x="397" y="305"/>
      <point x="367" y="305" type="curve" smooth="yes"/>
      <point x="330" y="305"/>
      <point x="290" y="304"/>
      <point x="256" y="304" type="curve" smooth="yes"/>
      <point x="211" y="304"/>
      <point x="169" y="306"/>
      <point x="136" y="306" type="curve" smooth="yes"/>
      <point x="107" y="306"/>
      <point x="90" y="288"/>
      <point x="90" y="264" type="curve" smooth="yes"/>
      <point x="90" y="248"/>
      <point x="102" y="241"/>
      <point x="109" y="238" type="curve" smooth="yes"/>
      <point x="115" y="235"/>
      <point x="136" y="235"/>
      <point x="141" y="235" type="curve" smooth="yes"/>
      <point x="177" y="235"/>
      <point x="206" y="236"/>
      <point x="241" y="236" type="curve" smooth="yes"/>
      <point x="298" y="236"/>
      <point x="339" y="235"/>
      <point x="359" y="235" type="curve" smooth="yes"/>
      <point x="391" y="235"/>
      <point x="406" y="237"/>
      <point x="413" y="248" type="curve" smooth="yes"/>
      <point x="417" y="254"/>
      <point x="418" y="260"/>
      <point x="418" y="268" type="curve" smooth="yes"/>
      <point x="418" y="274"/>
      <point x="416" y="279"/>
    </contour>
  </outline>
</glyph>
<glyph name="uniA4F4" format="2">
  <advance width="558"/>
  <unicode hex="A4F4"/>
  <outline>
    <contour>
      <point x="174" y="495" type="curve" smooth="yes"/>
      <point x="151" y="439"/>
      <point x="131" y="381"/>
      <point x="108" y="312" type="curve" smooth="yes"/>
      <point x="86" y="247"/>
      <point x="74" y="191"/>
      <point x="74" y="147" type="curve" smooth="yes"/>
      <point x="74" y="59"/>
      <point x="130" y="-10"/>
      <point x="214" y="-10" type="curve" smooth="yes"/>
      <point x="281" y="-10"/>
      <point x="326" y="12"/>
      <point x="375" y="57" type="curve" smooth="yes"/>
      <point x="417" y="96"/>
      <point x="436" y="133"/>
      <point x="456" y="174" type="curve" smooth="yes"/>
      <point x="485" y="233"/>
      <point x="531" y="350"/>
      <point x="569" y="457" type="curve" smooth="yes"/>
      <point x="575" y="474"/>
      <point x="582" y="492"/>
      <point x="585" y="502" type="curve" smooth="yes"/>
      <point x="586" y="506"/>
      <point x="586" y="509"/>
      <point x="586" y="511" type="curve" smooth="yes"/>
      <point x="586" y="516"/>
      <point x="585" y="521"/>
      <point x="579" y="525" type="curve" smooth="yes"/>
      <point x="572" y="530"/>
      <point x="563" y="532"/>
      <point x="544" y="532" type="curve" smooth="yes"/>
      <point x="528" y="532"/>
      <point x="519" y="530"/>
      <point x="513" y="526" type="curve" smooth="yes"/>
      <point x="506" y="522"/>
      <point x="503" y="515"/>
      <point x="498" y="502" type="curve" smooth="yes"/>
      <point x="495" y="494"/>
      <point x="489" y="472"/>
      <point x="476" y="431" type="curve" smooth="yes"/>
      <point x="456" y="369"/>
      <point x="432" y="300"/>
      <point x="404" y="236" type="curve" smooth="yes"/>
      <point x="363" y="142"/>
      <point x="296" y="63"/>
      <point x="229" y="63" type="curve" smooth="yes"/>
      <point x="177" y="63"/>
      <point x="152" y="95"/>
      <point x="152" y="154" type="curve" smooth="yes"/>
      <point x="152" y="193"/>
      <point x="170" y="254"/>
      <point x="190" y="312" type="curve" smooth="yes"/>
      <point x="214" y="380"/>
      <point x="240" y="437"/>
      <point x="262" y="495" type="curve" smooth="yes"/>
      <point x="265" y="503"/>
      <point x="266" y="508"/>
      <point x="266" y="513" type="curve" smooth="yes"/>
      <point x="266" y="524"/>
      <point x="247" y="532"/>
      <point x="224" y="532" type="curve" smooth="yes"/>
      <point x="210" y="532"/>
      <point x="196" y="531"/>
      <point x="190" y="525" type="curve" smooth="yes"/>
      <point x="186" y="521"/>
      <point x="181" y="512"/>
    </contour>
  </outline>
</glyph>
<glyph name="uniA4F5" format="2">
  <advance width="559"/>
  <unicode hex="A4F5"/>
  <outline>
    <contour>
      <point x="417" y="28" type="curve" smooth="yes"/>
      <point x="440" y="84"/>
      <point x="464" y="147"/>
      <point x="487" y="216" type="curve" smooth="yes"/>
      <point x="509" y="281"/>
      <point x="521" y="337"/>
      <point x="521" y="381" type="curve" smooth="yes"/>
      <point x="521" y="469"/>
      <point x="465" y="538"/>
      <point x="381" y="538" type="curve" smooth="yes"/>
      <point x="314" y="538"/>
      <point x="269" y="516"/>
      <point x="220" y="471" type="curve" smooth="yes"/>
      <point x="178" y="432"/>
      <point x="159" y="395"/>
      <point x="139" y="354" type="curve" smooth="yes"/>
      <point x="110" y="295"/>
      <point x="62" y="172"/>
      <point x="24" y="65" type="curve" smooth="yes"/>
      <point x="18" y="48"/>
      <point x="10" y="31"/>
      <point x="7" y="21" type="curve" smooth="yes"/>
      <point x="6" y="17"/>
      <point x="6" y="14"/>
      <point x="6" y="12" type="curve" smooth="yes"/>
      <point x="6" y="7"/>
      <point x="8" y="2"/>
      <point x="14" y="-2" type="curve" smooth="yes"/>
      <point x="21" y="-7"/>
      <point x="30" y="-9"/>
      <point x="49" y="-9" type="curve" smooth="yes"/>
      <point x="65" y="-9"/>
      <point x="74" y="-7"/>
      <point x="80" y="-3" type="curve" smooth="yes"/>
      <point x="87" y="1"/>
      <point x="90" y="8"/>
      <point x="95" y="21" type="curve" smooth="yes"/>
      <point x="98" y="29"/>
      <point x="104" y="50"/>
      <point x="117" y="91" type="curve" smooth="yes"/>
      <point x="137" y="153"/>
      <point x="163" y="228"/>
      <point x="191" y="292" type="curve" smooth="yes"/>
      <point x="232" y="386"/>
      <point x="299" y="465"/>
      <point x="366" y="465" type="curve" smooth="yes"/>
      <point x="418" y="465"/>
      <point x="443" y="433"/>
      <point x="443" y="374" type="curve" smooth="yes"/>
      <point x="443" y="335"/>
      <point x="425" y="274"/>
      <point x="405" y="216" type="curve" smooth="yes"/>
      <point x="381" y="148"/>
      <point x="353" y="86"/>
      <point x="331" y="28" type="curve" smooth="yes"/>
      <point x="328" y="20"/>
      <point x="327" y="15"/>
      <point x="327" y="10" type="curve" smooth="yes"/>
      <point x="327" y="-1"/>
      <point x="346" y="-9"/>
      <point x="369" y="-9" type="curve" smooth="yes"/>
      <point x="382" y="-9"/>
      <point x="395" y="-8"/>
      <point x="401" y="-2" type="curve" smooth="yes"/>
      <point x="405" y="2"/>
      <point x="410" y="11"/>
    </contour>
  </outline>
</glyph>
<glyph name="uniA4F9" format="2">
  <advance width="197"/>
  <unicode hex="A4F9"/>
  <outline>
    <contour>
      <point x="-49" y="-95" type="curve" smooth="yes"/>
      <point x="-17" y="-95"/>
      <point x="29" y="-69"/>
      <point x="56" y="-34" type="curve" smooth="yes"/>
      <point x="83" y="0"/>
      <point x="119" y="64"/>
      <point x="119" y="105" type="curve" smooth="yes"/>
      <point x="119" y="119"/>
      <point x="100" y="130"/>
      <point x="76" y="130" type="curve" smooth="yes"/>
      <point x="53" y="130"/>
      <point x="34" y="125"/>
      <point x="28" y="101" type="curve" smooth="yes"/>
      <point x="26" y="94"/>
      <point x="22" y="80"/>
      <point x="17" y="64" type="curve" smooth="yes"/>
      <point x="-3" y="0"/>
      <point x="-36" y="-41"/>
      <point x="-61" y="-67" type="curve" smooth="yes"/>
      <point x="-69" y="-75"/>
      <point x="-72" y="-83"/>
      <point x="-72" y="-87" type="curve" smooth="yes"/>
      <point x="-72" y="-93"/>
      <point x="-63" y="-95"/>
    </contour>
  </outline>
</glyph>
<glyph name="uniA4FA" format="2">
  <advance width="414"/>
  <unicode hex="A4FA"/>
  <outline>
    <contour>
      <point x="116" y="76" type="curve" smooth="yes"/>
      <point x="116" y="101"/>
      <point x="102" y="125"/>
      <point x="72" y="125" type="curve" smooth="yes"/>
      <point x="28" y="125"/>
      <point x="-7" y="80"/>
      <point x="-7" y="40" type="curve" smooth="yes"/>
      <point x="-7" y="15"/>
      <point x="7" y="-7"/>
      <point x="37" y="-7" type="curve" smooth="yes"/>
      <point x="81" y="-7"/>
      <point x="116" y="36"/>
    </contour>
    <contour>
      <point x="322" y="76" type="curve" smooth="yes"/>
      <point x="322" y="101"/>
      <point x="308" y="125"/>
      <point x="278" y="125" type="curve" smooth="yes"/>
      <point x="234" y="125"/>
      <point x="199" y="80"/>
      <point x="199" y="40" type="curve" smooth="yes"/>
      <point x="199" y="15"/>
      <point x="213" y="-7"/>
      <point x="243" y="-7" type="curve" smooth="yes"/>
      <point x="287" y="-7"/>
      <point x="322" y="36"/>
    </contour>
  </outline>
</glyph>
<glyph name="uniA4FB" format="2">
  <advance width="408"/>
  <unicode hex="A4FB"/>
  <outline>
    <contour>
      <point x="116" y="76" type="curve" smooth="yes"/>
      <point x="116" y="101"/>
      <point x="102" y="125"/>
      <point x="72" y="125" type="curve" smooth="yes"/>
      <point x="28" y="125"/>
      <point x="-7" y="80"/>
      <point x="-7" y="40" type="curve" smooth="yes"/>
      <point x="-7" y="15"/>
      <point x="7" y="-7"/>
      <point x="37" y="-7" type="curve" smooth="yes"/>
      <point x="81" y="-7"/>
      <point x="116" y="36"/>
    </contour>
    <contour>
      <point x="162" y="-95" type="curve" smooth="yes"/>
      <point x="194" y="-95"/>
      <point x="240" y="-69"/>
      <point x="267" y="-34" type="curve" smooth="yes"/>
      <point x="294" y="0"/>
      <point x="330" y="64"/>
      <point x="330" y="105" type="curve" smooth="yes"/>
      <point x="330" y="119"/>
      <point x="311" y="130"/>
      <point x="287" y="130" type="curve" smooth="yes"/>
      <point x="264" y="130"/>
      <point x="245" y="125"/>
      <point x="239" y="101" type="curve" smooth="yes"/>
      <point x="237" y="94"/>
      <point x="233" y="80"/>
      <point x="228" y="64" type="curve" smooth="yes"/>
      <point x="208" y="0"/>
      <point x="175" y="-41"/>
      <point x="150" y="-67" type="curve" smooth="yes"/>
      <point x="142" y="-75"/>
      <point x="139" y="-83"/>
      <point x="139" y="-87" type="curve" smooth="yes"/>
      <point x="139" y="-93"/>
      <point x="148" y="-95"/>
    </contour>
  </outline>
</glyph>
<glyph name="uniA4FE" format="2">
  <advance width="538"/>
  <unicode hex="A4FE"/>
  <outline>
    <contour>
      <point x="44" y="269" type="curve" smooth="yes"/>
      <point x="41" y="260"/>
      <point x="40" y="251"/>
      <point x="40" y="246" type="curve" smooth="yes"/>
      <point x="40" y="229"/>
      <point x="53" y="225"/>
      <point x="70" y="225" type="curve" smooth="yes"/>
      <point x="110" y="225"/>
      <point x="135" y="226"/>
      <point x="217" y="226" type="curve" smooth="yes"/>
      <point x="251" y="226"/>
      <point x="281" y="225"/>
      <point x="318" y="225" type="curve" smooth="yes"/>
      <point x="326" y="225"/>
      <point x="340" y="226"/>
      <point x="346" y="229" type="curve" smooth="yes"/>
      <point x="352" y="232"/>
      <point x="359" y="237"/>
      <point x="365" y="255" type="curve" smooth="yes"/>
      <point x="367" y="262"/>
      <point x="369" y="271"/>
      <point x="369" y="277" type="curve" smooth="yes"/>
      <point x="369" y="292"/>
      <point x="362" y="299"/>
      <point x="340" y="299" type="curve" smooth="yes"/>
      <point x="309" y="299"/>
      <point x="263" y="297"/>
      <point x="202" y="297" type="curve" smooth="yes"/>
      <point x="143" y="297"/>
      <point x="108" y="298"/>
      <point x="82" y="298" type="curve" smooth="yes"/>
      <point x="64" y="298"/>
      <point x="53" y="294"/>
    </contour>
    <contour>
      <point x="440" y="76" type="curve" smooth="yes"/>
      <point x="440" y="101"/>
      <point x="426" y="125"/>
      <point x="396" y="125" type="curve" smooth="yes"/>
      <point x="352" y="125"/>
      <point x="317" y="80"/>
      <point x="317" y="40" type="curve" smooth="yes"/>
      <point x="317" y="15"/>
      <point x="331" y="-7"/>
      <point x="361" y="-7" type="curve" smooth="yes"/>
      <point x="405" y="-7"/>
      <point x="440" y="36"/>
    </contour>
  </outline>
</glyph>
<glyph name="uniA4FF" format="2">
  <advance width="491"/>
  <unicode hex="A4FF"/>
  <outline>
    <contour>
      <point x="74" y="346" type="curve" smooth="yes"/>
      <point x="71" y="337"/>
      <point x="70" y="327"/>
      <point x="70" y="322" type="curve" smooth="yes"/>
      <point x="70" y="303"/>
      <point x="81" y="301"/>
      <point x="100" y="301" type="curve" smooth="yes"/>
      <point x="140" y="301"/>
      <point x="181" y="302"/>
      <point x="263" y="302" type="curve" smooth="yes"/>
      <point x="297" y="302"/>
      <point x="343" y="301"/>
      <point x="379" y="301" type="curve" smooth="yes"/>
      <point x="383" y="301"/>
      <point x="402" y="301"/>
      <point x="408" y="304" type="curve" smooth="yes"/>
      <point x="422" y="310"/>
      <point x="430" y="339"/>
      <point x="430" y="353" type="curve" smooth="yes"/>
      <point x="430" y="372"/>
      <point x="418" y="375"/>
      <point x="398" y="375" type="curve" smooth="yes"/>
      <point x="352" y="375"/>
      <point x="293" y="373"/>
      <point x="247" y="373" type="curve" smooth="yes"/>
      <point x="189" y="373"/>
      <point x="168" y="374"/>
      <point x="113" y="374" type="curve" smooth="yes"/>
      <point x="95" y="374"/>
      <point x="82" y="370"/>
    </contour>
    <contour>
      <point x="14" y="181" type="curve" smooth="yes"/>
      <point x="11" y="172"/>
      <point x="10" y="162"/>
      <point x="10" y="157" type="curve" smooth="yes"/>
      <point x="10" y="138"/>
      <point x="21" y="136"/>
      <point x="40" y="136" type="curve" smooth="yes"/>
      <point x="80" y="136"/>
      <point x="121" y="137"/>
      <point x="203" y="137" type="curve" smooth="yes"/>
      <point x="237" y="137"/>
      <point x="283" y="136"/>
      <point x="319" y="136" type="curve" smooth="yes"/>
      <point x="323" y="136"/>
      <point x="342" y="136"/>
      <point x="348" y="139" type="curve" smooth="yes"/>
      <point x="362" y="145"/>
      <point x="370" y="174"/>
      <point x="370" y="188" type="curve" smooth="yes"/>
      <point x="370" y="207"/>
      <point x="358" y="210"/>
      <point x="338" y="210" type="curve" smooth="yes"/>
      <point x="292" y="210"/>
      <point x="233" y="208"/>
      <point x="187" y="208" type="curve" smooth="yes"/>
      <point x="129" y="208"/>
      <point x="108" y="209"/>
      <point x="53" y="209" type="curve" smooth="yes"/>
      <point x="35" y="209"/>
      <point x="22" y="205"/>
    </contour>
  </outline>
</glyph>
<glyph name="f_i" format="2">
  <advance width="528"/>
  <unicode hex="FB01"/>
  <outline>
    <contour>
      <point x="387" y="688" type="curve" smooth="yes"/>
      <point x="264" y="688"/>
      <point x="170" y="609"/>
      <point x="141" y="441" type="curve" smooth="yes"/>
      <point x="117" y="299"/>
      <point x="99" y="171"/>
      <point x="75" y="34" type="curve" smooth="yes"/>
      <point x="58" y="-58"/>
      <point x="44" y="-110"/>
      <point x="21" y="-145" type="curve" smooth="yes"/>
      <point x="1" y="-174"/>
      <point x="-17" y="-189"/>
      <point x="-35" y="-200" type="curve"/>
      <point x="-4" y="-197" type="line"/>
      <point x="-27" y="-173" type="line" smooth="yes"/>
      <point x="-47" y="-151"/>
      <point x="-68" y="-134"/>
      <point x="-95" y="-134" type="curve" smooth="yes"/>
      <point x="-117" y="-134"/>
      <point x="-136" y="-149"/>
      <point x="-139" y="-170" type="curve"/>
      <point x="-129" y="-207"/>
      <point x="-92" y="-228"/>
      <point x="-49" y="-228" type="curve" smooth="yes"/>
      <point x="-18" y="-228"/>
      <point x="13" y="-217"/>
      <point x="51" y="-182" type="curve" smooth="yes"/>
      <point x="102" y="-136"/>
      <point x="126" y="-64"/>
      <point x="145" y="34" type="curve" smooth="yes"/>
      <point x="172" y="167"/>
      <point x="193" y="314"/>
      <point x="215" y="446" type="curve" smooth="yes"/>
      <point x="239" y="591"/>
      <point x="302" y="652"/>
      <point x="392" y="652" type="curve" smooth="yes"/>
      <point x="404" y="652"/>
      <point x="417" y="652"/>
      <point x="429" y="652" type="curve"/>
      <point x="365" y="672" type="line"/>
      <point x="393" y="637" type="line" smooth="yes"/>
      <point x="421" y="601"/>
      <point x="437" y="586"/>
      <point x="465" y="586" type="curve" smooth="yes"/>
      <point x="484" y="586"/>
      <point x="500" y="597"/>
      <point x="506" y="620" type="curve"/>
      <point x="498" y="655"/>
      <point x="456" y="688"/>
    </contour>
    <contour>
      <point x="326" y="36" type="curve" smooth="yes"/>
      <point x="326" y="4"/>
      <point x="350" y="-11"/>
      <point x="378" y="-11" type="curve" smooth="yes"/>
      <point x="445" y="-11"/>
      <point x="494" y="45"/>
      <point x="534" y="101" type="curve"/>
      <point x="511" y="118" type="line"/>
      <point x="474" y="75"/>
      <point x="447" y="53"/>
      <point x="425" y="53" type="curve" smooth="yes"/>
      <point x="415" y="53"/>
      <point x="405" y="60"/>
      <point x="405" y="73" type="curve" smooth="yes"/>
      <point x="405" y="83"/>
      <point x="409" y="102"/>
      <point x="414" y="125" type="curve" smooth="yes"/>
      <point x="479" y="439" type="line"/>
      <point x="467" y="449" type="line"/>
      <point x="423" y="437" type="line"/>
      <point x="168" y="437" type="line"/>
      <point x="168" y="440" type="line"/>
      <point x="48" y="428" type="line"/>
      <point x="41" y="392" type="line"/>
      <point x="160" y="392" type="line"/>
      <point x="395" y="388" type="line"/>
      <point x="335" y="105" type="line" smooth="yes"/>
      <point x="328" y="69"/>
      <point x="326" y="51"/>
    </contour>
  </outline>
</glyph>
<glyph name="uniFFFD" format="2">
  <advance width="611"/>
  <unicode hex="FFFD"/>
  <outline>
    <contour>
      <point x="425" y="392" type="curve"/>
      <point x="425" y="345"/>
      <point x="395" y="311"/>
      <point x="376" y="290" type="curve" smooth="yes"/>
      <point x="330" y="241"/>
      <point x="310" y="217"/>
      <point x="308" y="159" type="curve"/>
      <point x="294" y="159" type="line"/>
      <point x="298" y="208"/>
      <point x="310" y="249"/>
      <point x="337" y="295" type="curve" smooth="yes"/>
      <point x="350" y="317"/>
      <point x="367" y="356"/>
      <point x="367" y="388" type="curve" smooth="yes"/>
      <point x="367" y="450"/>
      <point x="327" y="474"/>
      <point x="294" y="474" type="curve" smooth="yes"/>
      <point x="253" y="474"/>
      <point x="234" y="451"/>
      <point x="234" y="433" type="curve" smooth="yes"/>
      <point x="234" y="415"/>
      <point x="254" y="393"/>
      <point x="254" y="379" type="curve" smooth="yes"/>
      <point x="254" y="362"/>
      <point x="240" y="353"/>
      <point x="229" y="353" type="curve" smooth="yes"/>
      <point x="219" y="353"/>
      <point x="195" y="361"/>
      <point x="195" y="401" type="curve" smooth="yes"/>
      <point x="195" y="448"/>
      <point x="234" y="492"/>
      <point x="307" y="492" type="curve" smooth="yes"/>
      <point x="375" y="492"/>
      <point x="425" y="454"/>
    </contour>
    <contour>
      <point x="338" y="85" type="curve"/>
      <point x="338" y="62"/>
      <point x="321" y="50"/>
      <point x="304" y="50" type="curve" smooth="yes"/>
      <point x="286" y="50"/>
      <point x="268" y="63"/>
      <point x="268" y="85" type="curve" smooth="yes"/>
      <point x="268" y="104"/>
      <point x="285" y="120"/>
      <point x="304" y="120" type="curve" smooth="yes"/>
      <point x="322" y="120"/>
      <point x="338" y="106"/>
    </contour>
    <contour>
      <point x="611" y="293" type="line"/>
      <point x="304" y="598" type="line"/>
      <point x="0" y="293" type="line"/>
      <point x="304" y="-11" type="line"/>
    </contour>
  </outline>
</glyph>
<glyph name="u11FB0" format="2">
  <advance width="507"/>
  <unicode hex="11FB0"/>
  <outline>
    <contour>
      <point x="365" y="532" type="curve" smooth="yes"/>
      <point x="389" y="532"/>
      <point x="402" y="521"/>
      <point x="402" y="510" type="curve" smooth="yes"/>
      <point x="402" y="503"/>
      <point x="397" y="487"/>
      <point x="393" y="476" type="curve" smooth="yes"/>
      <point x="379" y="439"/>
      <point x="335" y="329"/>
      <point x="310" y="275" type="curve"/>
      <point x="265" y="235"/>
      <point x="148" y="131"/>
      <point x="70" y="33" type="curve" smooth="yes"/>
      <point x="59" y="19"/>
      <point x="47" y="5"/>
      <point x="36" y="-3" type="curve" smooth="yes"/>
      <point x="27" y="-9"/>
      <point x="17" y="-10"/>
      <point x="0" y="-10" type="curve" smooth="yes"/>
      <point x="-22" y="-10"/>
      <point x="-37" y="0"/>
      <point x="-37" y="11" type="curve" smooth="yes"/>
      <point x="-37" y="22"/>
      <point x="-20" y="44"/>
      <point x="-6" y="61" type="curve" smooth="yes"/>
      <point x="46" y="123"/>
      <point x="138" y="213"/>
      <point x="198" y="269" type="curve" smooth="yes"/>
      <point x="225" y="295"/>
      <point x="241" y="307"/>
      <point x="245" y="314" type="curve" smooth="yes"/>
      <point x="271" y="361"/>
      <point x="291" y="442"/>
      <point x="318" y="510" type="curve" smooth="yes"/>
      <point x="324" y="524"/>
      <point x="336" y="532"/>
    </contour>
    <contour>
      <point x="293" y="322" type="curve" smooth="yes"/>
      <point x="309" y="322"/>
      <point x="319" y="316"/>
      <point x="321" y="310" type="curve" smooth="yes"/>
      <point x="323" y="305"/>
      <point x="328" y="284"/>
      <point x="338" y="258" type="curve" smooth="yes"/>
      <point x="369" y="181"/>
      <point x="392" y="112"/>
      <point x="404" y="68" type="curve" smooth="yes"/>
      <point x="411" y="44"/>
      <point x="415" y="23"/>
      <point x="415" y="17" type="curve" smooth="yes"/>
      <point x="415" y="1"/>
      <point x="404" y="-10"/>
      <point x="374" y="-10" type="curve" smooth="yes"/>
      <point x="354" y="-10"/>
      <point x="341" y="-3"/>
      <point x="338" y="8" type="curve" smooth="yes"/>
      <point x="335" y="18"/>
      <point x="333" y="32"/>
      <point x="328" y="49" type="curve" smooth="yes"/>
      <point x="313" y="106"/>
      <point x="298" y="151"/>
      <point x="272" y="216" type="curve" smooth="yes"/>
      <point x="262" y="240"/>
      <point x="253" y="266"/>
      <point x="253" y="279" type="curve" smooth="yes"/>
      <point x="253" y="305"/>
      <point x="276" y="322"/>
    </contour>
  </outline>
</glyph>
